<?xml version="1.0" encoding="UTF-8"?>
<svg version="1.1" xmlns="http://www.w3.org/2000/svg" width="640" height="640">
<path d="M0 0 C211.2 0 422.4 0 640 0 C640 211.2 640 422.4 640 640 C428.8 640 217.6 640 0 640 C0 428.8 0 217.6 0 0 Z " fill="#FDFEFE" transform="translate(0,0)"/>
<path d="M0 0 C5.13616991 0.57657649 9.70939717 1.76689882 14.5625 3.5625 C15.28791992 3.82426025 16.01333984 4.08602051 16.76074219 4.35571289 C19.17666979 5.22954282 21.58863691 6.11365605 24 7 C27.58263352 8.31441869 31.16596475 9.62690814 34.75 10.9375 C36.13143188 11.44385986 36.13143188 11.44385986 37.54077148 11.96044922 C44.90753526 14.64404231 52.33250543 17.11934331 59.78344727 19.55737305 C65.45634556 21.43244716 70.9502983 23.5568608 76.4296875 25.9453125 C79.73899242 27.30323397 83.09908023 28.2988802 86.55078125 29.2265625 C89.13571194 30.0428564 91.56309956 31.10604228 94.04370117 32.19287109 C97.62334419 33.66975863 101.31618155 34.81326654 105 36 C110.46941221 37.7619583 115.7222885 39.71058177 121 42 C123.57819332 42.93850552 126.15674938 43.85587137 128.75 44.75 C135.35146684 47.05533287 141.93401444 49.4078791 148.5 51.8125 C149.33112305 52.11446289 150.16224609 52.41642578 151.01855469 52.72753906 C156.88249346 54.88249346 156.88249346 54.88249346 158 56 C158.10702304 57.65399719 158.14408873 59.31255893 158.15390015 60.96998596 C158.16250061 62.04734512 158.17110107 63.12470428 158.17996216 64.23471069 C158.18635208 66.02420639 158.18635208 66.02420639 158.19287109 67.84985352 C158.20104858 69.09891983 158.20922607 70.34798615 158.21765137 71.63490295 C158.24260341 75.79956743 158.25921828 79.9641951 158.2734375 84.12890625 C158.27879963 85.56873009 158.28417714 87.00855388 158.28956985 88.44837761 C158.31123841 94.45578548 158.32995843 100.46319065 158.34119225 106.47062778 C158.35730953 115.03128525 158.39013766 123.5914798 158.44759309 132.15196282 C158.48671097 138.19137342 158.50587533 144.23066268 158.51111281 150.27019638 C158.51471882 153.86273567 158.5262121 157.45478248 158.55921555 161.04718208 C158.74495329 182.34367524 157.34121566 202.19591384 149 222 C148.56558594 223.16144531 148.13117188 224.32289063 147.68359375 225.51953125 C141.34024572 242.28267355 132.87608791 257.77193746 122 272 C121.29617188 272.98742187 120.59234375 273.97484375 119.8671875 274.9921875 C114.53477013 282.41034745 108.52652148 288.97128545 102.234375 295.578125 C99.78159542 298.15424436 97.42137852 300.78226762 95.125 303.5 C92.37864313 306.68358782 89.397115 309.40603544 86.1875 312.1171875 C84.67553004 313.41856164 83.19780698 314.76041213 81.75 316.1328125 C64.01622497 332.92448074 42.99438141 346.65228845 21.91357422 358.875 C19.8328628 360.09826081 17.77862486 361.36064169 15.72265625 362.625 C14.2948382 363.48011473 12.86646594 364.33430487 11.4375 365.1875 C10.78249512 365.59895264 10.12749023 366.01040527 9.45263672 366.43432617 C6.32707238 368.26381672 4.68893587 369.17399012 1.1027832 368.26831055 C-1.82472794 367.07164516 -4.47112763 365.75234969 -7.203125 364.1640625 C-8.17419189 363.60074219 -9.14525879 363.03742188 -10.14575195 362.45703125 C-11.17015381 361.85246094 -12.19455566 361.24789063 -13.25 360.625 C-14.31758545 359.99722656 -15.3851709 359.36945313 -16.48510742 358.72265625 C-38.35690745 345.75382671 -59.16814835 331.11485933 -78 314 C-78.96728027 313.12529053 -78.96728027 313.12529053 -79.95410156 312.23291016 C-92.23684708 301.08567103 -102.98061223 289.2068842 -113 276 C-113.63639404 275.1649292 -113.63639404 275.1649292 -114.28564453 274.31298828 C-125.75939535 259.13571337 -134.90248538 242.63877029 -142 225 C-142.28214355 224.30729004 -142.56428711 223.61458008 -142.85498047 222.90087891 C-151.58290906 201.10934477 -152.58768609 179.69385274 -152.18896484 156.44042969 C-152.13823418 153.00117486 -152.13626873 149.56456222 -152.140625 146.125 C-152.10866028 145.07924805 -152.07669556 144.03349609 -152.04376221 142.95605469 C-152.06294838 140.08680059 -152.14193112 137.73996172 -153 135 C-154.95774441 133.19176958 -156.74439778 132.15037956 -159.17645264 131.07495117 C-161 130 -161 130 -162.0625 126.1875 C-162.08356913 124.79167021 -162.06175449 123.39462221 -162 122 C-162.04640625 120.95199219 -162.04640625 120.95199219 -162.09375 119.8828125 C-162.0625 117.8125 -162.0625 117.8125 -161 114 C-159.18139648 112.96638489 -159.18139648 112.96638489 -156.99609375 112.03051758 C-154.20564176 110.37975469 -153.18367824 109.61937576 -152.25024414 106.47177124 C-151.97634772 103.19212885 -151.94469794 99.98996361 -152 96.69921875 C-151.98912354 95.50770706 -151.97824707 94.31619537 -151.96704102 93.08857727 C-151.94086968 89.28730053 -151.9697383 85.48870564 -152 81.6875 C-151.99190942 79.10871002 -151.98023345 76.52992862 -151.96484375 73.95117188 C-151.93497784 67.63362451 -151.95028195 61.31739526 -152 55 C-150.7939209 54.57291748 -149.5878418 54.14583496 -148.34521484 53.70581055 C-142.68774451 51.7017693 -137.03130394 49.69483055 -131.375 47.6875 C-130.35690247 47.32640137 -129.33880493 46.96530273 -128.28985596 46.59326172 C-117.98861165 42.93807987 -107.68966415 39.27936004 -97.4375 35.48828125 C-96.73339996 35.22810715 -96.02929993 34.96793304 -95.30386353 34.69987488 C-92.08286232 33.50782987 -88.86496621 32.30836127 -85.64990234 31.1003418 C-84.53566895 30.6856665 -83.42143555 30.27099121 -82.2734375 29.84375 C-81.31872559 29.48474609 -80.36401367 29.12574219 -79.38037109 28.75585938 C-77 28 -77 28 -74 28 C-74.185625 26.96875 -74.37125 25.9375 -74.5625 24.875 C-74 21 -74 21 -72.13671875 19.26953125 C-69.80472069 17.72377149 -67.46690599 16.31922291 -65 15 C-64.01773438 14.39091797 -64.01773438 14.39091797 -63.015625 13.76953125 C-60.25722235 12.71642016 -58.79988572 13.11761177 -56 14 C-53.359375 15.375 -53.359375 15.375 -50.75 17 C-49.87859375 17.53625 -49.0071875 18.0725 -48.109375 18.625 C-46 20 -46 20 -45 21 C-44.18682391 26.58829286 -43.4519386 32.48494662 -45 38 C-48.42923318 41.78248224 -52.07608411 43.71810462 -57 45 C-61.14426395 44.72641778 -62.78402364 44.14952209 -66.25 41.75 C-68.53697806 40.36042842 -69.51859204 39.92128549 -72.19061279 40.35818481 C-72.98203674 40.62428558 -73.77346069 40.89038635 -74.58886719 41.16455078 C-75.47231812 41.45573792 -76.35576904 41.74692505 -77.26599121 42.04693604 C-78.16821411 42.36144714 -79.07043701 42.67595825 -80 43 C-80.83486938 43.28437927 -81.66973877 43.56875854 -82.52990723 43.86175537 C-85.13618755 44.7618364 -87.73272822 45.68621014 -90.328125 46.6171875 C-91.27959412 46.95622101 -92.23106323 47.29525452 -93.21136475 47.64456177 C-96.22508299 48.71903796 -99.23755866 49.79694973 -102.25 50.875 C-104.25382462 51.59007255 -106.25773027 52.30491804 -108.26171875 53.01953125 C-112.9961427 54.70839023 -117.7296206 56.39987876 -122.46264648 58.09265137 C-126.11531952 59.39883431 -129.76857951 60.70337174 -133.421875 62.0078125 C-134.5159668 62.39855957 -135.61005859 62.78930664 -136.73730469 63.19189453 C-137.48399414 63.45856934 -138.23068359 63.72524414 -139 64 C-139.17766557 70.31671031 -139.30014437 76.63277563 -139.38452148 82.95141602 C-139.41969795 85.10009842 -139.46744851 87.24861359 -139.52807617 89.39672852 C-139.61311874 92.48756137 -139.65271588 95.57617849 -139.68359375 98.66796875 C-139.71972275 99.62648239 -139.75585175 100.58499603 -139.79307556 101.57255554 C-139.92014458 106.57956469 -139.92014458 106.57956469 -137.39505005 110.64517212 C-135.49956552 111.9833531 -135.49956552 111.9833531 -133.50721741 112.97651672 C-133.00983566 113.3142662 -132.51245392 113.65201569 -132 114 C-132 114.99 -132 115.98 -132 117 C-118.8 117 -105.6 117 -92 117 C-91.01 115.02 -91.01 115.02 -90 113 C-87.23193856 110.79662309 -84.31335253 109.23548738 -81 108 C-77.875 108.375 -77.875 108.375 -75 110 C-74.37738281 110.26683594 -73.75476563 110.53367187 -73.11328125 110.80859375 C-70.83602766 111.99572189 -69.53029821 112.92036397 -68 115 C-67.72265625 117.83203125 -67.72265625 117.83203125 -67.75 121.125 C-67.63687423 127.31863581 -66.00494021 130.16561885 -61.75 134.375 C-61.27143555 134.85727051 -60.79287109 135.33954102 -60.29980469 135.83642578 C-58.71221464 137.35424881 -58.71221464 137.35424881 -56 139 C-53.33652824 138.9614407 -53.33652824 138.9614407 -51 138 C-45.59854015 136.64963504 -45.59854015 136.64963504 -42.4375 138.5 C-41.633125 138.995 -40.82875 139.49 -40 140 C-35.18486908 139.75501966 -31.91082749 137.10688986 -28.1875 134.3125 C-26.94836888 133.38611356 -25.70878784 132.46032862 -24.46875 131.53515625 C-23.87449219 131.09059082 -23.28023437 130.64602539 -22.66796875 130.18798828 C-21 129 -21 129 -18.34375 127.49609375 C-16.00445688 126.14421965 -14.5535581 125.22264212 -13 123 C-12.54296701 119.39072078 -12.49940061 115.87443077 -12.46484375 112.23828125 C-12 109 -12 109 -10.25390625 106.98046875 C-7.51428414 105.28590748 -5.2608441 104 -2 104 C-2.00999275 102.82275864 -2.00999275 102.82275864 -2.02018738 101.62173462 C-2.08023366 94.23487195 -2.12594113 86.84812717 -2.15543652 79.46108437 C-2.17111006 75.66307817 -2.19237859 71.86527319 -2.22631836 68.06738281 C-2.25885241 64.40397533 -2.27684029 60.74076169 -2.28463173 57.07722092 C-2.29018603 55.6777173 -2.30103199 54.27822461 -2.31719017 52.87880325 C-2.33888273 50.92272489 -2.3402247 48.96645252 -2.34057617 47.01025391 C-2.35056892 45.33813339 -2.35056892 45.33813339 -2.36076355 43.63223267 C-2.24171158 42.76359589 -2.12265961 41.89495911 -2 41 C1.31255431 38.79163046 2.5564518 38.79788309 6.375 39.39453125 C14.23287038 41.20698647 21.81318291 44.04978427 29.21484375 47.21484375 C38.10756355 50.95526664 47.22213627 54.09229735 56.3125 57.3125 C58.20458134 57.98547223 60.09658938 58.65865058 61.98852539 59.33203125 C72.50221016 63.07020759 83.02722609 66.77348006 93.57666016 70.40966797 C100.44465343 72.78374006 107.26578888 75.27601405 114.06811523 77.83203125 C117.35554313 79.06138659 120.58406872 80.19594596 124 81 C124.13993762 94.45786321 124.24609257 107.91554911 124.31087303 121.37399578 C124.34198784 127.62548991 124.38409258 133.87648088 124.45263672 140.12768555 C124.51854369 146.17726797 124.55385463 152.22637102 124.56926346 158.27628517 C124.58022318 160.56723372 124.6016186 162.85816049 124.63438034 165.14890099 C124.84442304 180.46531346 123.06136354 193.53021681 118 208 C117.49674292 209.49105056 116.99398445 210.98226953 116.49179077 212.47367859 C109.04282852 234.04070663 96.37096774 252.6338299 81.27929688 269.55761719 C79.65590718 271.38795809 78.08199141 273.2588645 76.5 275.125 C68.41610134 284.28805988 59.64263702 292.5028802 50 300 C49.38527832 300.48581543 48.77055664 300.97163086 48.13720703 301.47216797 C37.81198214 309.62841783 27.1821284 317.06657384 16 324 C15.05640625 324.59554688 14.1128125 325.19109375 13.140625 325.8046875 C11 327 11 327 9 327 C9.33 334.92 9.66 342.84 10 351 C20.93518898 344.67385761 31.60541205 338.17634476 42 331 C42.59409668 330.59281738 43.18819336 330.18563477 43.80029297 329.76611328 C52.65757793 323.67355793 60.90284458 317.06581042 69 310 C69.70382812 309.39671875 70.40765625 308.7934375 71.1328125 308.171875 C80.25893397 300.30584562 89.33899302 292.32493609 97 283 C97.75539063 282.12085938 98.51078125 281.24171875 99.2890625 280.3359375 C116.90950955 259.66055226 130.43627008 236.59172916 139.3125 210.875 C139.54300049 210.22007568 139.77350098 209.56515137 140.01098633 208.89038086 C145.54471774 192.04938482 145.47041246 175.29648746 145.51171875 157.75 C145.52697853 155.03757639 145.54660348 152.32518888 145.56611633 149.61279297 C145.60945922 143.24556048 145.63820239 136.87835292 145.66143972 130.51101875 C145.68866622 123.25073601 145.73256539 115.99058231 145.77772844 108.73039246 C145.87011217 93.8203316 145.9420024 78.91023733 146 64 C145.39524841 63.85241745 144.79049683 63.7048349 144.16741943 63.55278015 C139.1151546 62.26424703 134.193607 60.46137176 129.25 58.8125 C128.02877441 58.40539795 126.80754883 57.9982959 125.54931641 57.57885742 C117.85846286 54.9990916 110.24095593 52.29533241 102.66796875 49.390625 C98.69502264 47.88437493 94.69820231 46.46415618 90.6875 45.0625 C84.66445922 42.95564379 78.66951727 40.78310666 72.6875 38.5625 C65.1054187 35.74954001 57.49023014 33.04294232 49.84838867 30.39672852 C45.65894818 28.94362063 41.49075086 27.45058631 37.34204102 25.88378906 C32.47314582 24.04647012 27.5964486 22.23166495 22.70825195 20.44628906 C21.43735877 19.97950383 20.16815555 19.50809313 18.90063477 19.03222656 C17.04879128 18.33787455 15.19046562 17.66088863 13.33203125 16.984375 C12.23608643 16.57928711 11.1401416 16.17419922 10.01098633 15.75683594 C6.81952174 14.95463532 5.0963134 14.95762976 2 16 C-0.17910493 18.05844564 -0.17910493 18.05844564 -2.125 20.75 C-2.90101563 21.74515625 -3.67703125 22.7403125 -4.4765625 23.765625 C-4.88551758 24.29478516 -5.29447266 24.82394531 -5.71582031 25.36914062 C-7.9008065 28.14399001 -10.20453355 30.81648851 -12.5 33.5 C-16.6291097 38.35559322 -20.72271322 43.23331541 -24.65625 48.25 C-27 51 -27 51 -29.96875 53.625 C-36.87974922 59.9721519 -38.61921538 65.09234526 -39.11132812 74.546875 C-39.22239974 80.03780016 -39.19991136 85.51157818 -39 91 C-38.236875 91.28875 -37.47375 91.5775 -36.6875 91.875 C-34 93 -34 93 -31 95 C-30.04675623 99.76621885 -30.05353936 104.23524672 -31 109 C-34.12704653 112.77768466 -37.86902806 114.29992108 -42.4375 115.80078125 C-47.008598 116.15615625 -50.01175995 113.90990732 -53.70703125 111.44140625 C-56.62493979 108.33460414 -56.86203325 106.53237942 -57 102.3125 C-56.84218431 98.11558889 -56.63211944 96.60476812 -53.5625 93.66796875 C-51 92 -51 92 -49 91 C-48.67 84.07 -48.34 77.14 -48 70 C-53.12316642 71.79566983 -58.24614009 73.59187167 -63.36865234 75.3894043 C-65.10845299 75.99973889 -66.84836009 76.60977011 -68.58837891 77.21948242 C-71.10087219 78.09993494 -73.61297049 78.98150654 -76.125 79.86328125 C-77.27705933 80.26659416 -77.27705933 80.26659416 -78.45239258 80.67805481 C-83.32617812 82.39037185 -88.16826097 84.17229992 -93 86 C-94.95682781 86.73319739 -96.91497219 87.46290048 -98.875 88.1875 C-100.26332031 88.70376953 -100.26332031 88.70376953 -101.6796875 89.23046875 C-104 90 -104 90 -106 90 C-106 96.27 -106 102.54 -106 109 C-109.63 109 -113.26 109 -117 109 C-117 99.76 -117 90.52 -117 81 C-113.61105469 79.78183594 -110.22210938 78.56367188 -106.73046875 77.30859375 C-103.38071437 76.10393656 -100.03105136 74.89902564 -96.68139648 73.6940918 C-94.38624405 72.86863239 -92.09099949 72.0434291 -89.7956543 71.21850586 C-84.27385697 69.23394029 -78.75339975 67.24583067 -73.23583984 65.24951172 C-69.26279934 63.81225604 -65.2844261 62.3921866 -61.29931641 60.98876953 C-59.59141333 60.37939436 -57.88356462 59.7698668 -56.17578125 59.16015625 C-55.41234909 58.89617538 -54.64891693 58.63219452 -53.86235046 58.36021423 C-47.57904811 56.09741479 -43.45432532 52.89078176 -39.375 47.5625 C-36.18913911 43.48267814 -32.92023295 39.50031608 -29.5625 35.5625 C-26.18599098 31.59598315 -22.84574302 27.60707474 -19.5625 23.5625 C-15.48864585 18.55305909 -11.29907905 13.65036955 -7.07250977 8.76977539 C-4.60776277 5.91557791 -2.21041509 3.05999639 0 0 Z " fill="#2A7BB5" transform="translate(317,136)"/>
<path d="M0 0 C13.2 0 26.4 0 40 0 C40.66 1.32 41.32 2.64 42 4 C43.90483714 5.58799027 43.90483714 5.58799027 46.1875 6.8125 C46.92355469 7.25207031 47.65960938 7.69164062 48.41796875 8.14453125 C51.1039237 9.26961323 51.1039237 9.26961323 54.40234375 8.328125 C58 8 58 8 61.2734375 9.96484375 C62.33778194 10.92290391 63.37108951 11.91628892 64.375 12.9375 C65.17901245 13.73438232 65.17901245 13.73438232 65.99926758 14.54736328 C69.9883916 18.95729162 70.85257084 22.50952812 70.6875 28.375 C70.56761719 29.68210937 70.44773437 30.98921875 70.32421875 32.3359375 C70.65873047 34.14964844 70.65873047 34.14964844 71 36 C72.98942232 37.41040294 72.98942232 37.41040294 75.40380859 38.63330078 C78.92673909 40.87579237 80.62537624 42.2900503 81.62475586 46.39257812 C81.875477 48.09839831 82.06917755 49.81326718 82.21484375 51.53125 C82.3063269 52.4638414 82.39781006 53.3964328 82.49206543 54.35728455 C82.7296752 57.40744413 82.8536639 60.44187751 82.9375 63.5 C82.97392609 64.53923615 83.01035217 65.57847229 83.04788208 66.64920044 C83.27855277 81.90641905 79.71832279 91.74440888 69.28407288 102.91799927 C62.05147515 110.20959468 54.28714389 116.92288548 46.28295898 123.34936523 C42.63704141 126.33380796 39.55579757 129.55670615 36.53846741 133.16981506 C34.18131884 135.97391594 31.68270844 138.50445726 29 141 C28.34 141 27.68 141 27 141 C25.39589838 138.90849827 23.93692968 136.82875009 22.5 134.625 C22.05930176 133.95235107 21.61860352 133.27970215 21.16455078 132.58666992 C1.63124582 102.34367753 -8.33732621 71.72492121 -8.53540039 35.71069336 C-8.56271128 32.41198059 -8.6379321 29.11629013 -8.71289062 25.81835938 C-8.72951976 23.71095876 -8.74329581 21.60353326 -8.75390625 19.49609375 C-8.78376114 18.51587753 -8.81361603 17.53566132 -8.84437561 16.52574158 C-8.80098609 9.82381151 -8.80098609 9.82381151 -6.42575073 7.38088989 C-4.51538086 6.09399414 -4.51538086 6.09399414 -2.60240173 5.1153717 C-0.51491521 3.92309692 -0.51491521 3.92309692 0 0 Z " fill="#FAFAFB" transform="translate(185,262)"/>
<path d="M0 0 C3.91975484 1.69218685 7.07228235 4.2879763 10.375 6.9375 C11.61972241 7.92586847 12.86451625 8.914147 14.109375 9.90234375 C14.74810547 10.4113623 15.38683594 10.92038086 16.04492188 11.44482422 C19.2277486 13.97661821 22.42659411 16.48793819 25.625 19 C26.20427246 19.45624756 26.78354492 19.91249512 27.38037109 20.38256836 C30.65005587 22.9721796 30.65005587 22.9721796 34.11865234 25.28051758 C36.74347675 27.67951035 36.82446873 29.30865913 37.0625 32.82421875 C36.80634245 41.0612851 32.42966541 45.02035484 26.7578125 50.38476562 C25.50589617 51.52809737 24.25328307 52.6706666 23 53.8125 C21.74444247 55.00275169 20.49180449 56.19609111 19.2421875 57.39257812 C16.19400474 60.29846325 13.10919684 63.15955022 10 66 C4.91199336 63.09822902 0.98247429 59.50956553 -3.25 55.5 C-4.00273193 54.79037109 -4.75546387 54.08074219 -5.53100586 53.34960938 C-11.20635571 47.92479575 -16.30845101 42.30886359 -21 36 C-24.32072528 37.57996613 -26.68029835 39.07889421 -29 42 C-28.43874239 46.48388708 -25.50482521 49.05592946 -22.5 52.1875 C-21.95609619 52.76338867 -21.41219238 53.33927734 -20.85180664 53.93261719 C-19.24257052 55.62963843 -17.62253979 57.31570798 -16 59 C-15.20464844 59.83660156 -14.40929687 60.67320312 -13.58984375 61.53515625 C-8.10581559 67.17843024 -2.18600965 72.14915255 4 77 C4.61907227 77.49016602 5.23814453 77.98033203 5.87597656 78.48535156 C18.33442537 88.324798 31.2143323 97.1224756 45 105 C45 112.92 45 120.84 45 129 C40.83088853 127.61029618 38.0266878 126.6188815 34.42578125 124.4609375 C33.59916992 123.96722656 32.77255859 123.47351563 31.92089844 122.96484375 C31.06012695 122.44019531 30.19935547 121.91554688 29.3125 121.375 C28.41692383 120.83230469 27.52134766 120.28960937 26.59863281 119.73046875 C20.14901292 115.78525992 14.00204418 111.59930015 8 107 C6.74890007 106.07478538 5.496166 105.15177817 4.2421875 104.23046875 C-8.75114407 94.65339996 -20.74765868 84.57692809 -32 73 C-34.42756138 70.56118254 -36.86467899 68.13326723 -39.31640625 65.71875 C-48.06789881 57.07379735 -48.06789881 57.07379735 -50 54 C-49.62729205 50.38835022 -48.04123088 48.67892503 -45.50927734 46.18457031 C-44.77115814 45.4499054 -44.03303894 44.71524048 -43.27255249 43.95831299 C-42.46846954 43.17285095 -41.6643866 42.38738892 -40.8359375 41.578125 C-39.59778793 40.34990021 -39.59778793 40.34990021 -38.33462524 39.09686279 C-35.68840136 36.47406841 -33.0322713 33.8615972 -30.375 31.25 C-27.74083695 28.65104917 -25.10886336 26.04993669 -22.47964478 23.44598389 C-20.8433904 21.82652167 -19.20405222 20.21016717 -17.56112671 18.59747314 C-13.34220382 14.43293474 -9.30556576 10.18730041 -5.45425415 5.67938232 C-3.72921077 3.6872908 -1.9006138 1.82458925 0 0 Z " fill="#FBFBFC" transform="translate(269,358)"/>
<path d="M0 0 C0.93175049 0.20608887 1.86350098 0.41217773 2.82348633 0.62451172 C3.17333643 8.10807769 3.43866899 15.59078448 3.60066891 23.08069992 C3.67850025 26.56067228 3.78367675 30.03499878 3.95507812 33.51171875 C5.12167784 57.80888028 5.12167784 57.80888028 -0.31420898 64.00830078 C-3.33597033 66.704275 -6.57095632 68.72833405 -10.17068481 70.56311035 C-12.9573824 72.03771503 -15.47763015 73.82938611 -18.04875183 75.64709473 C-20.43788652 77.32014833 -22.89331374 78.88106443 -25.35229492 80.44873047 C-27.19742892 81.63799242 -29.0153677 82.86212251 -30.83276367 84.09326172 C-31.9883293 84.85471798 -33.14454991 85.61518146 -34.30151367 86.37451172 C-35.3147168 87.04998047 -36.32791992 87.72544922 -37.37182617 88.42138672 C-40.17651367 89.62451172 -40.17651367 89.62451172 -42.57885742 89.10888672 C-45.96627271 87.17322084 -49.31550038 85.20883365 -52.61401367 83.12451172 C-53.30688477 82.68961426 -53.99975586 82.2547168 -54.71362305 81.80664062 C-61.73267379 77.35347126 -68.47860762 72.54328648 -75.17651367 67.62451172 C-73.59791541 63.77839099 -71.14996112 61.38297826 -68.20385742 58.49169922 C-67.720746 58.01378937 -67.23763458 57.53587952 -66.73988342 57.04348755 C-65.20262326 55.52397557 -63.65882041 54.01134782 -62.11401367 52.49951172 C-60.5665389 50.97966613 -59.02055441 49.45837753 -57.47743225 47.93411255 C-56.08080566 46.55532429 -54.67943044 45.18135107 -53.27783203 43.80761719 C-51.14391822 41.8077072 -51.14391822 41.8077072 -50.17651367 39.62451172 C-47.21476244 40.23728784 -45.79592584 40.87823694 -43.17651367 42.62451172 C-37.23374783 41.99633345 -31.3989095 39.90435511 -27.17651367 35.62451172 C-26.75766907 32.83620336 -26.59977398 30.58483011 -26.67651367 27.81201172 C-26.83020875 20.47120249 -26.83020875 20.47120249 -24.12573242 16.96826172 C-21.36401367 14.81201172 -21.36401367 14.81201172 -18.36401367 12.80029297 C-14.23695753 9.98317254 -10.86603381 6.58510382 -7.41357422 2.98852539 C-4.74484271 0.39726872 -3.78888622 -0.44787541 0 0 Z " fill="#FBFCFD" transform="translate(361.176513671875,363.37548828125)"/>
<path d="M0 0 C0.09330043 10.78894642 0.16406631 21.5777945 0.20724869 32.36706448 C0.22798984 37.37872662 0.25605648 42.39010971 0.30175781 47.40161133 C0.34570223 52.25164027 0.36923795 57.10140339 0.37950897 61.95161629 C0.38681423 63.78809854 0.40107517 65.62456874 0.42292023 67.46093559 C0.6004162 83.02215793 -1.67143502 97.01884708 -7.25 111.625 C-7.54229492 112.40496338 -7.83458984 113.18492676 -8.13574219 113.98852539 C-11.6437119 123.06618253 -15.90940197 132.34915618 -22 140 C-26.32929855 139.53614658 -28.77754339 136.70464548 -31.75 133.8125 C-35.2583913 130.43010066 -38.51156552 127.58480573 -42.75 125.125 C-45.25448123 123.2692379 -45.93190807 122.20201547 -46.94140625 119.20703125 C-47.57749104 113.60278946 -46.80828373 109.68857744 -43.35546875 105.23046875 C-42.26265998 104.00524785 -41.14344259 102.80310709 -40 101.625 C-39.44868408 101.04741943 -38.89736816 100.46983887 -38.3293457 99.87475586 C-34.19577378 96.02895301 -34.19577378 96.02895301 -30.953125 95.95043945 C-28.96262326 96.26355997 -26.98082787 96.63059158 -25 97 C-21.05504274 95.96332799 -18.45113103 94.27373282 -16 91 C-15.23457252 86.24379201 -15.47027927 81.77402634 -16 77 C-18.31 75.68 -20.62 74.36 -23 73 C-23 58.48 -23 43.96 -23 29 C-20.69 27.68 -18.38 26.36 -16 25 C-15.4615671 22.3929571 -15.4615671 22.3929571 -15.9375 19.5625 C-15.88619389 14.93924981 -14.98870616 12.61659008 -11.87890625 9.32421875 C-2.12428086 0 -2.12428086 0 0 0 Z " fill="#F6FBFC" transform="translate(429,234)"/>
<path d="M0 0 C5.51623008 0.98932964 10.67994373 2.00767463 15.81640625 4.328125 C22.10310985 7.06856037 28.48231812 9.43874139 34.9375 11.75 C36.03384766 12.14832031 37.13019531 12.54664063 38.25976562 12.95703125 C39.31744141 13.33730469 40.37511719 13.71757812 41.46484375 14.109375 C42.409646 14.44936523 43.35444824 14.78935547 44.32788086 15.13964844 C46.87549135 15.95991151 49.36699801 16.53326362 52 17 C50.89331271 20.32006187 50.05427405 21.0582597 47.4375 23.25 C46.72464844 23.85457031 46.01179688 24.45914063 45.27734375 25.08203125 C44.52582031 25.71496094 43.77429688 26.34789062 43 27 C41.49732552 28.30943715 39.99718607 29.62179103 38.5 30.9375 C37.33333333 31.95833333 36.16666667 32.97916667 35 34 C34.278125 33.649375 33.55625 33.29875 32.8125 32.9375 C29.5366678 31.84555593 28.24513844 31.89190395 25 33 C22.9819245 34.30581356 20.97946592 35.63636792 19 37 C18.34 37 17.68 37 17 37 C17.00602367 39.42151413 17.05343688 41.83027212 17.125 44.25 C17.12242187 44.93191406 17.11984375 45.61382812 17.1171875 46.31640625 C17.14779591 48.62639455 17.14779591 48.62639455 18 52 C19.48632935 52.79809082 19.48632935 52.79809082 21.00268555 53.61230469 C24 56 24 56 24.56750488 58.02374268 C24.77876884 60.65745998 24.8051685 63.2330264 24.76171875 65.875 C24.76508743 66.83647949 24.76845612 67.79795898 24.77192688 68.78857422 C24.77162816 70.81939041 24.75639087 72.8502516 24.72729492 74.88085938 C24.68763166 77.98968072 24.70658008 81.09423401 24.73242188 84.203125 C24.72486247 86.17709989 24.71390872 88.1510653 24.69921875 90.125 C24.7096949 91.51887939 24.7096949 91.51887939 24.72038269 92.94091797 C24.57962918 99.3728046 24.57962918 99.3728046 21.58129883 102.6171875 C19 104 19 104 17 104 C17.0928125 104.92941406 17.185625 105.85882813 17.28125 106.81640625 C17.86181872 116.75864554 17.86181872 116.75864554 15.39453125 120.3125 C13.3433731 122.03655038 11.2258775 123.51193665 9 125 C8.05804073 125.97621233 7.1371868 126.9737557 6.25 128 C5.13625 128.99 5.13625 128.99 4 130 C1.859375 129.625 1.859375 129.625 0 129 C-0.19806477 123.39514781 -0.34306251 117.79233864 -0.43945312 112.18481445 C-0.47963662 110.27852903 -0.53419687 108.37248945 -0.60351562 106.46704102 C-0.70080921 103.72350509 -0.74597204 100.98322978 -0.78125 98.23828125 C-0.82254028 97.38913651 -0.86383057 96.53999176 -0.90637207 95.66511536 C-0.90823485 93.19747816 -0.82385695 91.3292728 0 89 C2.78533332 86.34164511 6.04880029 84 10 84 C10 78.06 10 72.12 10 66 C8.35 65.34 6.7 64.68 5 64 C2.22297668 62.7462616 2.22297668 62.7462616 0 61 C-0.60127258 58.32344055 -0.60127258 58.32344055 -0.56762695 55.05981445 C-0.5672493 53.83877518 -0.56687164 52.6177359 -0.56648254 51.35969543 C-0.54067612 50.04087875 -0.51486969 48.72206207 -0.48828125 47.36328125 C-0.4789541 45.99994705 -0.47183752 44.63659609 -0.46684265 43.27323914 C-0.44776422 39.68726212 -0.3986588 36.10230001 -0.34332275 32.51672363 C-0.29214691 28.85699189 -0.26933234 25.1970959 -0.24414062 21.53710938 C-0.1905386 14.35761054 -0.10521838 7.17894754 0 0 Z " fill="#F9FCFC" transform="translate(373,207)"/>
<path d="M0 0 C13.18946614 4.39648871 26.12729031 8.82891149 39 14 C39.1157928 22.42304643 39.20466267 30.84576103 39.25906086 39.26940632 C39.28516804 43.18078511 39.32058464 47.09161989 39.37719727 51.00268555 C39.43147998 54.77635741 39.4614121 58.54950572 39.47438622 62.32353783 C39.4836331 63.76413405 39.50169059 65.20470123 39.52865028 66.64507484 C39.56487938 68.66064184 39.56704183 70.67673447 39.56762695 72.69262695 C39.58428154 74.41471123 39.58428154 74.41471123 39.60127258 76.17158508 C39 79 39 79 36.62229919 80.93661499 C34 82 34 82 31.47558594 81.3215332 C30.65864258 80.88542725 29.84169922 80.44932129 29 80 C28.24235352 79.6599292 27.48470703 79.3198584 26.70410156 78.96948242 C14.43482478 73.06142945 14.43482478 73.06142945 10 69 C8.72826676 65.1891259 8.74409659 62.87538995 9.4296875 58.9453125 C9.28789062 57.97335938 9.14609375 57.00140625 9 56 C6.03 54.35 3.06 52.7 0 51 C0 34.17 0 17.34 0 0 Z " fill="#FBFDFD" transform="translate(325,189)"/>
<path d="M0 0 C3.63 0 7.26 0 11 0 C11.01401855 1.87981567 11.01401855 1.87981567 11.02832031 3.79760742 C11.06892969 8.55623833 11.13486321 13.31426948 11.20751953 18.07250977 C11.23532602 20.11149245 11.25673534 22.15057485 11.27099609 24.18969727 C11.40476619 42.26203755 12.82606685 59.93041429 20.046875 76.69921875 C21 79 21 79 21 81 C25.33826709 78.70327036 29.17859514 76.05783465 32 72 C32.83264619 68.86437973 32.88530963 65.85706766 32.875 62.625 C32.895625 61.79355469 32.91625 60.96210938 32.9375 60.10546875 C32.98427529 58.07074345 32.99573321 56.03525841 33 54 C32.236875 53.71125 31.47375 53.4225 30.6875 53.125 C28 52 28 52 25 50 C23.91432129 45.18932018 23.87957488 40.80182195 25 36 C28.1672843 32.56610928 31.57697505 30.4887556 36 29 C38.03125 29.203125 38.03125 29.203125 40 30 C40.85078125 30.30292969 41.7015625 30.60585938 42.578125 30.91796875 C45.59463281 32.35125097 47.68703124 33.5713828 50 36 C51.24055042 40.86634095 51.14213721 45.11886624 50 50 C48.13705549 52.56573196 47.08136419 52.89070889 44 54 C43.34 54 42.68 54 42 54 C42.02618408 54.60996826 42.05236816 55.21993652 42.0793457 55.84838867 C42.18365719 58.62782758 42.24842982 61.40685439 42.3125 64.1875 C42.3753418 65.62706055 42.3753418 65.62706055 42.43945312 67.09570312 C42.56353109 74.26740958 42.56353109 74.26740958 39.8125 77.84375 C38.4203125 78.91109375 38.4203125 78.91109375 37 80 C36.11699219 80.88300781 35.23398438 81.76601563 34.32421875 82.67578125 C31.8828125 85.1171875 29.44140625 87.55859375 27 90 C28.06190203 92.78982155 29.05776234 95.08458057 30.75 97.5625 C31.1625 98.366875 31.575 99.17125 32 100 C30.8307787 103.27776083 29.03822137 105.07996777 26.375 107.25 C25.42753906 108.03117187 25.42753906 108.03117187 24.4609375 108.828125 C23.97882813 109.21484375 23.49671875 109.6015625 23 110 C9.36209816 88.07508337 -0.22264324 65.29999619 -0.09765625 39.16015625 C-0.0962413 38.03806259 -0.09482635 36.91596893 -0.09336853 35.75987244 C-0.087794 32.19405392 -0.07524616 28.62829938 -0.0625 25.0625 C-0.05748171 22.6373707 -0.05291938 20.21224041 -0.04882812 17.78710938 C-0.03783291 11.85804846 -0.02058583 5.92903506 0 0 Z " fill="#3A3D9D" transform="translate(200,271)"/>
<path d="M0 0 C2.73819331 1.46527133 5.33353203 3.12245951 7.9375 4.8125 C8.62779297 5.25142578 9.31808594 5.69035156 10.02929688 6.14257812 C11.38823065 7.00946195 12.7409073 7.88624444 14.08666992 8.7734375 C15.8407804 9.89793042 17.66076751 10.91789056 19.484375 11.92578125 C22 14 22 14 22.48828125 17.0234375 C22.37134397 19.25304166 22.2463768 21.48223954 22.11328125 23.7109375 C22.40589844 24.79632813 22.69851563 25.88171875 23 27 C24.47735794 27.75919287 25.98047042 28.4688448 27.49609375 29.1484375 C30.13777992 30.73141372 31.70311572 31.87751147 32.50894165 34.92425537 C33.1456032 40.08055329 33.0182874 45.24922016 32.84375 50.43261719 C32.74980837 53.25575893 32.72079687 56.07388418 32.703125 58.8984375 C32.67562957 60.68756164 32.6445068 62.47663452 32.609375 64.265625 C32.59025055 65.53433441 32.59025055 65.53433441 32.57073975 66.82867432 C32.48339844 69.19628906 32.48339844 69.19628906 32 73 C29 75 29 75 27.01342773 74.77319336 C23.55000965 73.44317698 20.88582529 70.91064425 18.0625 68.5625 C16.7222443 67.46765943 15.38108142 66.37392855 14.0390625 65.28125 C13.02827637 64.45560547 13.02827637 64.45560547 11.99707031 63.61328125 C8.03060832 60.40907821 3.96041911 57.34055044 -0.09765625 54.25390625 C-1.05542969 53.51011719 -2.01320313 52.76632812 -3 52 C-4.03777588 51.34612305 -5.07555176 50.69224609 -6.14477539 50.01855469 C-8.17035082 48.31042383 -8.91063943 47.37852465 -9.52497864 44.77622986 C-9.6950099 41.98198579 -9.6743209 39.24729346 -9.5859375 36.44921875 C-9.57744781 35.43527542 -9.56895813 34.42133209 -9.56021118 33.37666321 C-9.52668868 30.14585024 -9.45140836 26.91755539 -9.375 23.6875 C-9.34489905 21.49417673 -9.31752348 19.30081425 -9.29296875 17.10742188 C-9.22690184 11.73742561 -9.12656549 6.3688927 -9 1 C-5.42283232 -0.93303283 -3.94874427 -1.33122673 0 0 Z " fill="#FBFBFC" transform="translate(283,303)"/>
<path d="M0 0 C4.24758736 1.91708374 8.36582154 4.00163139 12.47387695 6.20117188 C13.3575293 6.63300781 14.24118164 7.06484375 15.15161133 7.50976562 C21.20542958 10.81014839 21.20542958 10.81014839 22.4440918 14.58911133 C22.67315671 18.1664873 22.45023933 20.93002734 20.53564453 24.01513672 C19.01046029 25.65150261 17.42226205 27.01006357 15.66137695 28.38867188 C15.06993896 28.88915039 14.47850098 29.38962891 13.86914062 29.90527344 C12.69147167 30.8993282 11.50435482 31.88231437 10.30737305 32.85302734 C8.12416047 34.64117624 6.05550349 36.54654131 3.97387695 38.45117188 C0.91613886 41.20117188 0.91613886 41.20117188 -1.33862305 41.20117188 C-1.33862305 41.86117187 -1.33862305 42.52117187 -1.33862305 43.20117188 C-3.55320681 42.72661821 -5.25930259 42.24876415 -7.21362305 41.07617188 C-10.26586372 39.81936689 -12.18259801 40.36385911 -15.33862305 41.20117188 C-16.18424805 41.75804687 -17.02987305 42.31492187 -17.90112305 42.88867188 C-20.33862305 44.20117188 -20.33862305 44.20117188 -22.45581055 43.62304688 C-26.47755839 41.63942057 -30.1591521 39.22726991 -33.90112305 36.76367188 C-34.65586914 36.27318359 -35.41061523 35.78269531 -36.18823242 35.27734375 C-38.24860918 33.9321991 -40.30514489 32.58666645 -42.33862305 31.20117188 C-43.06355957 30.75016113 -43.78849609 30.29915039 -44.53540039 29.83447266 C-46.33862305 28.20117188 -46.33862305 28.20117188 -47.03027344 25.96020508 C-47.17355966 22.09746287 -47.26366808 19.33638987 -44.74829102 16.24951172 C-42.50914923 14.44539725 -40.21848638 12.90586874 -37.77612305 11.38867188 C-36.97625977 10.85564453 -36.17639648 10.32261719 -35.35229492 9.7734375 C-33.77567976 8.72450578 -32.18884753 7.6907479 -30.59155273 6.67358398 C-28.4700715 5.28708059 -26.46280171 3.80982378 -24.4440918 2.27929688 C-21.33862305 0.20117188 -21.33862305 0.20117188 -18.21362305 0.76367188 C-15.33862305 2.20117188 -15.33862305 2.20117188 -12.96362305 3.63867188 C-10.37370587 4.49410096 -10.37370587 4.49410096 -8.42456055 3.14257812 C-7.05273069 2.19462828 -5.70936765 1.20385713 -4.40112305 0.16992188 C-2.33862305 -0.79882812 -2.33862305 -0.79882812 0 0 Z " fill="#FBFCFD" transform="translate(331.338623046875,265.798828125)"/>
<path d="M0 0 C0 13.2 0 26.4 0 40 C-4.2342162 42.1171081 -4.76472897 42.30040257 -9 41 C-11.29589844 39.89257812 -11.29589844 39.89257812 -13.609375 38.53125 C-14.44597656 38.04269531 -15.28257812 37.55414063 -16.14453125 37.05078125 C-17.43423828 36.28314453 -17.43423828 36.28314453 -18.75 35.5 C-19.62527344 34.98824219 -20.50054687 34.47648437 -21.40234375 33.94921875 C-28.84188703 29.57776619 -28.84188703 29.57776619 -29.51953125 27.1015625 C-29.88019986 24.05271054 -29.82421654 21.97924126 -29 19 C-25.8740987 15.26217675 -22.34449824 12.27078156 -18.54345703 9.24121094 C-16.43927004 7.54907449 -14.44319198 5.74449726 -12.4375 3.9375 C-6.69270298 -1.1154505 -6.69270298 -1.1154505 0 0 Z " fill="#F8FBFC" transform="translate(364,296)"/>
<path d="M0 0 C15.40725028 7.58994527 15.40725028 7.58994527 18.28198242 13.14916992 C18.62839762 17.96805276 17.69564064 20.81421123 14.66870117 24.57885742 C12.12355548 26.93963035 9.47516571 28.99979871 6.68823242 31.06713867 C5.23886536 32.32442095 3.80013175 33.5941387 2.37573242 34.87963867 C1.7337793 35.43264648 1.09182617 35.9856543 0.43041992 36.55541992 C-1.07420584 37.86100326 -2.5406813 39.21031422 -3.99926758 40.56713867 C-6.31176758 42.06713867 -6.31176758 42.06713867 -8.95629883 41.66088867 C-9.73360352 41.46495117 -10.5109082 41.26901367 -11.31176758 41.06713867 C-11.41057687 35.42550791 -11.48320754 29.78437968 -11.53149414 24.14208984 C-11.55162105 22.22240426 -11.57892548 20.30278006 -11.61352539 18.38330078 C-11.66199688 15.62541571 -11.684725 12.8683404 -11.70239258 10.11010742 C-11.72303772 9.25064011 -11.74368286 8.39117279 -11.76495361 7.50566101 C-11.76716973 1.63314405 -11.76716973 1.63314405 -9.59985352 -1.06054688 C-5.93786371 -2.45665118 -3.52014833 -1.42047595 0 0 Z " fill="#FAFCFC" transform="translate(336.311767578125,334.932861328125)"/>
<path d="M0 0 C5.07341218 1.08150728 8.33977522 4.82321041 11.9375 8.3125 C13.13270194 9.45590554 14.32930265 10.59785087 15.52734375 11.73828125 C16.10339355 12.28693848 16.67944336 12.8355957 17.27294922 13.40087891 C19.76532167 15.70863117 22.3657183 17.8563784 25 20 C22.38749272 24.90074551 19.54734851 28.92339169 15.6875 32.9375 C14.70750556 33.97838794 13.72833884 35.0200558 12.75 36.0625 C12.27820313 36.56265625 11.80640625 37.0628125 11.3203125 37.578125 C9.03616402 40.03797721 6.88070285 42.60677165 4.73046875 45.18359375 C2.33801268 47.69486254 -0.32455141 49.79210553 -3 52 C-3.07587748 44.91592242 -3.12852671 37.83194906 -3.16479492 30.74755859 C-3.17990945 28.33606043 -3.20040153 25.92458986 -3.22631836 23.51318359 C-3.26258425 20.05299072 -3.27969956 16.59316029 -3.29296875 13.1328125 C-3.30845261 12.04944611 -3.32393646 10.96607971 -3.33988953 9.84988403 C-3.34011612 8.8489975 -3.34034271 7.84811096 -3.34057617 6.81689453 C-3.34723801 5.93309113 -3.35389984 5.04928772 -3.36076355 4.13870239 C-3.24171158 3.4329306 -3.12265961 2.72715881 -3 2 C-2.01 1.34 -1.02 0.68 0 0 Z " fill="#F8FCFC" transform="translate(376,362)"/>
<path d="M0 0 C5.21171677 0.57678245 9.83351069 1.82058765 14.75 3.66015625 C15.84062241 4.0584539 15.84062241 4.0584539 16.95327759 4.46479797 C19.30445375 5.32464927 21.65215838 6.19359022 24 7.0625 C27.25679478 8.25669345 30.51520041 9.44646721 33.7734375 10.63671875 C34.57413666 10.93000061 35.37483582 11.22328247 36.19979858 11.52545166 C42.64932644 13.88431175 49.1277635 16.15091537 55.625 18.375 C62.59172647 20.7717347 69.50519616 23.2748172 76.375 25.9375 C77.1376416 26.23253418 77.9002832 26.52756836 78.68603516 26.83154297 C83.86993874 28.86993874 83.86993874 28.86993874 85 30 C85.16371467 32.06019524 85.25663952 34.12602616 85.32299805 36.19165039 C85.34437395 36.84525229 85.36574986 37.49885418 85.38777351 38.17226219 C85.45662054 40.37641871 85.51632118 42.58068601 85.57421875 44.78515625 C85.59542974 45.55387621 85.61664074 46.32259617 85.63849449 47.11461067 C86.14530561 65.98114442 86.06786669 84.84163046 85.86791992 103.7121582 C85.81795399 108.5216365 85.79215147 113.33094307 85.77148914 118.14062405 C85.75092709 121.9357368 85.71300817 125.73054283 85.6706295 129.52546883 C85.6536263 131.29797557 85.64267415 133.07055394 85.63868141 134.84313774 C85.59052352 151.31546458 84.18446706 169.33616319 76 184 C75.34 184.33 74.68 184.66 74 185 C74.4375 183.39583333 74.875 181.79166667 75.3125 180.1875 C75.58578125 179.18074219 75.8590625 178.17398438 76.140625 177.13671875 C76.68289291 175.15744089 77.2338167 173.18049538 77.796875 171.20703125 C78.04953125 170.31371094 78.3021875 169.42039062 78.5625 168.5 C78.90474609 167.30890625 78.90474609 167.30890625 79.25390625 166.09375 C81.4017835 157.18736895 82.30088409 148.70965204 82.31884766 139.55200195 C82.32889328 138.36046005 82.3389389 137.16891815 82.34928894 135.94126892 C82.37467628 132.71060998 82.39165481 129.48004527 82.40471697 126.24931741 C82.42047045 122.8593741 82.44722088 119.46951688 82.4727478 116.07963562 C82.5193213 109.67682777 82.55616826 103.27400334 82.58942068 96.87111396 C82.62779461 89.57469263 82.67716413 82.27835824 82.72740483 74.98201048 C82.83040547 59.98807144 82.91976828 44.99407949 83 30 C82.39524841 29.85241745 81.79049683 29.7048349 81.16741943 29.55278015 C76.1151546 28.26424703 71.193607 26.46137176 66.25 24.8125 C65.02877441 24.40539795 63.80754883 23.9982959 62.54931641 23.57885742 C54.85846286 20.9990916 47.24095593 18.29533241 39.66796875 15.390625 C35.69502276 13.88437498 31.69820441 12.46415212 27.6875 11.0625 C18.41711136 7.81976254 9.20762505 4.41622093 0 1 C0 0.67 0 0.34 0 0 Z " fill="#36B4C5" transform="translate(380,170)"/>
<path d="M0 0 C0 0.66 0 1.32 0 2 C-13.5375 6.87195946 -13.5375 6.87195946 -18.75 8.5625 C-22.67936946 9.8505806 -26.47873709 11.39186972 -30.3046875 12.95703125 C-34.29226433 14.50005011 -38.3570303 15.78409561 -42.43359375 17.0703125 C-45.1864677 17.95231904 -45.1864677 17.95231904 -48 20 C-48.42839423 22.26371438 -48.42839423 22.26371438 -48.32128906 24.92114258 C-48.31708954 26.45832695 -48.31708954 26.45832695 -48.31280518 28.02656555 C-48.28945099 29.69370857 -48.28945099 29.69370857 -48.265625 31.39453125 C-48.26839679 33.73502766 -48.27233972 36.07552292 -48.27734375 38.41601562 C-48.26899036 42.11632166 -48.24996423 45.81576865 -48.20947266 49.51586914 C-48.17664285 53.08028175 -48.18697345 56.6425504 -48.203125 60.20703125 C-48.17945862 61.31238724 -48.15579224 62.41774323 -48.13140869 63.55659485 C-48.20324879 71.13133622 -48.20324879 71.13133622 -50.57901001 73.7215271 C-52.49169922 75.02612305 -52.49169922 75.02612305 -54.40597534 75.99125671 C-56.40952784 77.00888971 -56.40952784 77.00888971 -56.9296875 80.375 C-56.91164062 81.57125 -56.89359375 82.7675 -56.875 84 C-56.89304688 85.19625 -56.91109375 86.3925 -56.9296875 87.625 C-56.39606411 90.98061245 -56.39606411 90.98061245 -54.4072113 92.09004211 C-53.77581741 92.42940292 -53.14442352 92.76876373 -52.49389648 93.1184082 C-50.26422332 94.63752736 -49.18461594 95.42427443 -48.35284424 98.01815796 C-48.12659332 100.52817279 -48.10920043 102.96084021 -48.16796875 105.48046875 C-48.16042068 106.40732986 -48.15287262 107.33419098 -48.14509583 108.28913879 C-48.12661 111.25624544 -48.15490681 114.22055394 -48.1875 117.1875 C-48.19555752 121.05607796 -48.1851548 124.92442641 -48.16796875 128.79296875 C-48.16393539 130.21603333 -48.16393539 130.21603333 -48.15982056 131.66784668 C-48.06357051 143.75560513 -47.08863907 155.96147799 -43.75 167.625 C-43.53891602 168.39859863 -43.32783203 169.17219727 -43.11035156 169.96923828 C-41.39815699 176.05138082 -39.30581873 181.96991442 -36.96777344 187.83837891 C-35.89796779 190.52428909 -34.99317909 193.03595592 -34.453125 195.8828125 C-34.30359375 196.58148438 -34.1540625 197.28015625 -34 198 C-33.34 198.33 -32.68 198.66 -32 199 C-31.33333333 201.33333333 -30.66666667 203.66666667 -30 206 C-29.34 206.33 -28.68 206.66 -28 207 C-26.89453125 208.77734375 -26.89453125 208.77734375 -25.8125 210.9375 C-25.44769531 211.64777344 -25.08289063 212.35804688 -24.70703125 213.08984375 C-24.47371094 213.72019531 -24.24039063 214.35054687 -24 215 C-24.33 215.66 -24.66 216.32 -25 217 C-30.83005447 207.30848088 -35.79154768 197.49995151 -40 187 C-40.27086426 186.33129883 -40.54172852 185.66259766 -40.82080078 184.97363281 C-49.52885895 163.11666989 -50.58879685 141.75863247 -50.18896484 118.44042969 C-50.13823418 115.00117486 -50.13626873 111.56456222 -50.140625 108.125 C-50.10866028 107.07924805 -50.07669556 106.03349609 -50.04376221 104.95605469 C-50.06294838 102.08680059 -50.14193112 99.73996172 -51 97 C-52.95774441 95.19176958 -54.74439778 94.15037956 -57.17645264 93.07495117 C-59 92 -59 92 -60.0625 88.1875 C-60.08356913 86.79167021 -60.06175449 85.39462221 -60 84 C-60.04640625 82.95199219 -60.04640625 82.95199219 -60.09375 81.8828125 C-60.0625 79.8125 -60.0625 79.8125 -59 76 C-57.18139648 74.96638489 -57.18139648 74.96638489 -54.99609375 74.03051758 C-52.20564176 72.37975469 -51.18367824 71.61937576 -50.25024414 68.47177124 C-49.97634772 65.19212885 -49.94469794 61.98996361 -50 58.69921875 C-49.98912354 57.50770706 -49.97824707 56.31619537 -49.96704102 55.08857727 C-49.94086968 51.28730053 -49.9697383 47.48870564 -50 43.6875 C-49.99190942 41.10871002 -49.98023345 38.52992862 -49.96484375 35.95117188 C-49.93497784 29.63362451 -49.95028195 23.31739526 -50 17 C-49.4406778 16.80177139 -48.88135559 16.60354279 -48.30508423 16.39930725 C-42.49743811 14.34074473 -36.69042828 12.28039512 -30.88378906 10.21899414 C-28.71500748 9.4493269 -26.54606263 8.68011954 -24.37695312 7.91137695 C-21.26389486 6.80800552 -18.15142242 5.70299578 -15.0390625 4.59765625 C-14.065065 4.25283707 -13.0910675 3.90801788 -12.08755493 3.55274963 C-11.18677216 3.23249313 -10.28598938 2.91223663 -9.35791016 2.58227539 C-8.56293121 2.30025772 -7.76795227 2.01824005 -6.94888306 1.72767639 C-2.32177232 0 -2.32177232 0 0 0 Z " fill="#424596" transform="translate(215,174)"/>
<path d="M0 0 C1.3547862 0.28877529 2.70879302 0.58120717 4.0625 0.875 C5.19365234 1.11863281 5.19365234 1.11863281 6.34765625 1.3671875 C9.59629718 2.14226825 12.7910138 3.07562776 16 4 C16.13993762 17.45786321 16.24609257 30.91554911 16.31087303 44.37399578 C16.34198784 50.62548991 16.38409258 56.87648088 16.45263672 63.12768555 C16.51854369 69.17726797 16.55385463 75.22637102 16.56926346 81.27628517 C16.58022318 83.56723372 16.6016186 85.85816049 16.63438034 88.14890099 C16.84441712 103.4648811 15.05094151 116.50883413 10 131 C8.8992349 127.22501133 9.30905255 124.99655074 10.375 121.1875 C12.54868753 113.33581561 13.14488599 105.94203672 13.11352539 97.84204102 C13.11367142 96.84615463 13.11381744 95.85026825 13.1139679 94.82420349 C13.11327433 91.55074849 13.10550805 88.27735124 13.09765625 85.00390625 C13.09579009 82.72704601 13.09436712 80.45018537 13.09336853 78.17332458 C13.08955892 72.19421267 13.07974195 66.21512523 13.06866455 60.23602295 C13.05841694 54.12935721 13.05386374 48.0226875 13.04882812 41.91601562 C13.03811826 29.94399969 13.02106057 17.97200189 13 6 C8.71 4.35 4.42 2.7 0 1 C0 0.67 0 0.34 0 0 Z " fill="#48BBCA" transform="translate(425,213)"/>
<path d="M0 0 C3.875 1.75 3.875 1.75 5 4 C5.097362 5.82085302 5.13076827 7.64529698 5.1328125 9.46875 C5.13563232 10.58886475 5.13845215 11.70897949 5.14135742 12.86303711 C5.11928903 17.76979664 5.07319747 22.67606027 5.01513672 27.58251953 C5.0021316 30.51873872 5.06097825 33.43712516 5.16015625 36.37109375 C5.17110903 37.89321705 5.18037766 39.41535396 5.1875 40.9375 C5.23970703 42.86916016 5.23970703 42.86916016 5.29296875 44.83984375 C4.04266186 51.58012705 -2.33760915 56.36026962 -7 61 C-8.5206392 62.5374762 -10.04035153 64.07586947 -11.55932617 65.61499023 C-16.74375359 70.85182715 -21.96430285 76.05188026 -27.1875 81.25 C-29.01651013 83.07398404 -30.84528803 84.898201 -32.67382812 86.72265625 C-37.11321247 91.15112532 -41.55545133 95.57671435 -46 100 C-46.66 99.67 -47.32 99.34 -48 99 C-47.35933594 98.3709375 -46.71867188 97.741875 -46.05859375 97.09375 C-45.19363281 96.2378125 -44.32867187 95.381875 -43.4375 94.5 C-42.59058594 93.6646875 -41.74367187 92.829375 -40.87109375 91.96875 C-38.72091424 89.80482164 -36.75978045 87.53505526 -34.80078125 85.19750977 C-31.88495364 81.8512937 -28.84490561 79.10790687 -25.32852173 76.41499329 C-7.22691506 62.65589513 -7.22691506 62.65589513 2.50097656 42.93896484 C4.00992403 30.91874742 5.58764543 11.17529085 0 0 Z " fill="#4B539F" transform="translate(263,302)"/>
<path d="M0 0 C0.495 0.99 0.495 0.99 1 2 C0.14857422 1.78649902 -0.70285156 1.57299805 -1.58007812 1.35302734 C-5.72601126 0.92505623 -7.87301532 1.76954315 -11.71875 3.3515625 C-13.13941994 3.91742292 -14.56139717 4.48000764 -15.984375 5.04003906 C-16.77457031 5.3531604 -17.56476563 5.66628174 -18.37890625 5.9888916 C-23.45155505 7.94570746 -28.58917683 9.72246962 -33.71875 11.5234375 C-34.83677002 11.91750793 -35.95479004 12.31157837 -37.10668945 12.71759033 C-40.57058621 13.93826676 -44.03527637 15.15667279 -47.5 16.375 C-49.88416654 17.21469625 -52.26828151 18.05453892 -54.65234375 18.89453125 C-60.43430308 20.93137416 -66.21689397 22.9664153 -72 25 C-72.15211778 31.33513627 -72.25719976 37.66980202 -72.32958984 44.00634766 C-72.35976553 46.16180011 -72.40071202 48.31712976 -72.45263672 50.47216797 C-72.5254163 53.57029493 -72.55944832 56.66679932 -72.5859375 59.765625 C-72.61690521 60.72929993 -72.64787292 61.69297485 -72.67977905 62.68585205 C-72.68107628 65.26386875 -72.63829966 67.50143159 -72 70 C-69.13153532 72.5259816 -69.13153532 72.5259816 -66 74 C-65.625 76.75 -65.625 76.75 -66 79 C-66.061875 78.38125 -66.12375 77.7625 -66.1875 77.125 C-66.80875315 74.7498001 -66.80875315 74.7498001 -69.375 73.9375 C-70.674375 73.4734375 -70.674375 73.4734375 -72 73 C-74.04633233 71.39810476 -74.89796827 70.53005344 -75.39440918 67.9510498 C-75.40282837 67.16734009 -75.41124756 66.38363037 -75.41992188 65.57617188 C-75.43583374 64.68514771 -75.45174561 63.79412354 -75.46813965 62.87609863 C-75.46834106 61.91667358 -75.46854248 60.95724854 -75.46875 59.96875 C-75.47636353 58.98128784 -75.48397705 57.99382568 -75.49182129 56.97644043 C-75.50262791 54.88845347 -75.50547312 52.80041243 -75.50097656 50.71240234 C-75.50000358 47.5117829 -75.54163284 44.31355477 -75.5859375 41.11328125 C-75.59114381 39.08594251 -75.5938327 37.05859542 -75.59375 35.03125 C-75.61014526 34.07182495 -75.62654053 33.1123999 -75.64343262 32.12390137 C-75.61758079 29.64850536 -75.55083405 27.41337496 -75 25 C-71.6659469 22.01807656 -68.386352 21.51004093 -64 21 C-64 20.34 -64 19.68 -64 19 C-63.20078125 18.75765625 -62.4015625 18.5153125 -61.578125 18.265625 C-54.82791386 16.20570141 -48.12557209 14.0571699 -41.4609375 11.734375 C-39 11 -39 11 -36 11 C-35.67 10.34 -35.34 9.68 -35 9 C-32.54571554 8.05987433 -30.12854095 7.22160158 -27.625 6.4375 C-26.93921875 6.21642578 -26.2534375 5.99535156 -25.546875 5.76757812 C-23.69970046 5.17281667 -21.84996438 4.58602624 -20 4 C-19.01 3.67 -18.02 3.34 -17 3 C-16.01 3 -15.02 3 -14 3 C-14 2.34 -14 1.68 -14 1 C-13.236875 0.855625 -12.47375 0.71125 -11.6875 0.5625 C-4.20067644 -1.00450958 -4.20067644 -1.00450958 0 0 Z " fill="#444795" transform="translate(250,175)"/>
<path d="M0 0 C0.1746354 3.89526499 0.28096492 7.7895219 0.375 11.6875 C0.42527344 12.79029297 0.47554688 13.89308594 0.52734375 15.02929688 C0.67402173 23.12103183 0.67402173 23.12103183 -1.35131836 25.76220703 C-2.84049831 26.92336699 -4.41713091 27.97020642 -6 29 C-6.41666667 32.5 -6.41666667 32.5 -6 36 C-6.28520405 37.67557379 -6.59955696 39.34817245 -7 41 C-6.278125 41.28875 -5.55625 41.5775 -4.8125 41.875 C-3.01930532 42.59227787 -1.24452674 43.3588498 0.5 44.1875 C3.48048646 45.1561581 5.01484025 44.84196813 8 44 C8.763125 43.814375 9.52625 43.62875 10.3125 43.4375 C10.869375 43.293125 11.42625 43.14875 12 43 C9.87878343 45.33333823 7.98405635 46.9148886 5 48 C-0.30058449 47.08015887 -5.22920652 44.84774845 -9 41 C-10.17488924 36.51203447 -10.24297226 32.47470012 -9 28 C-6.76169103 25.85151082 -4.76336621 24.3816831 -2 23 C-1.67 16.07 -1.34 9.14 -1 2 C-6.12316642 3.79566983 -11.24614009 5.59187167 -16.36865234 7.3894043 C-18.10845299 7.99973889 -19.84836009 8.60977011 -21.58837891 9.21948242 C-24.10087219 10.09993494 -26.61297049 10.98150654 -29.125 11.86328125 C-29.89303955 12.13215652 -30.6610791 12.4010318 -31.45239258 12.67805481 C-35.11149438 13.96361453 -38.75577293 15.27672667 -42.3828125 16.65039062 C-45.28234896 17.73223711 -47.97907152 18.5738739 -51 19.1875 C-51.763125 19.34605469 -52.52625 19.50460938 -53.3125 19.66796875 C-53.869375 19.77753906 -54.42625 19.88710937 -55 20 C-52.30202792 17.30202792 -49.18270414 16.49645326 -45.6484375 15.28515625 C-44.91557526 15.02874863 -44.18271301 14.772341 -43.42764282 14.50816345 C-41.07861459 13.68750826 -38.7269355 12.87478126 -36.375 12.0625 C-34.0450941 11.25212945 -31.71576021 10.44013725 -29.3866272 9.62754822 C-27.93796541 9.1227654 -26.48875994 8.61953903 -25.03890991 8.11817932 C-19.50980792 6.20112474 -14.02436304 4.18344641 -8.57421875 2.05078125 C-5.57797895 0.87833959 -3.24428299 0 0 0 Z " fill="#4E579E" transform="translate(270,204)"/>
<path d="M0 0 C1.3921875 0.8353125 1.3921875 0.8353125 2.8125 1.6875 C3.43382812 1.955625 4.05515625 2.22375 4.6953125 2.5 C6.97801424 3.68293855 8.28056927 4.60564542 9.8125 6.6875 C10.08984375 9.51953125 10.08984375 9.51953125 10.0625 12.8125 C10.17562577 19.00613581 11.80755979 21.85311885 16.0625 26.0625 C16.54106445 26.54477051 17.01962891 27.02704102 17.51269531 27.52392578 C19.10028536 29.04174881 19.10028536 29.04174881 21.8125 30.6875 C24.47597176 30.6489407 24.47597176 30.6489407 26.8125 29.6875 C32.21395985 28.33713504 32.21395985 28.33713504 35.375 30.1875 C36.179375 30.6825 36.98375 31.1775 37.8125 31.6875 C42.79204222 31.46794346 46.00316371 28.65177006 49.8125 25.75 C53.68681216 22.82356977 57.14367667 20.23493198 61.8125 18.6875 C59.10310602 22.58902733 56.57035052 24.56115302 52.47265625 26.71875 C50.61914744 27.70598568 50.61914744 27.70598568 48.75 29.75 C46.22546674 32.27453326 44.21220276 33.55426575 40.8125 34.6875 C37.1875 33.4375 37.1875 33.4375 33.8125 31.6875 C31.78006452 30.71872943 31.78006452 30.71872943 29.8125 30.6875 C28.9875 31.1825 28.1625 31.6775 27.3125 32.1875 C24.8125 33.6875 24.8125 33.6875 22.94140625 33.51953125 C20.17386443 32.43790481 18.4422834 30.87439213 16.25 28.875 C15.48558594 28.18792969 14.72117188 27.50085938 13.93359375 26.79296875 C8.91422809 21.81057816 8.91422809 21.81057816 8.51953125 17.453125 C8.55433594 16.29296875 8.58914062 15.1328125 8.625 13.9375 C8.65207031 12.76703125 8.67914063 11.5965625 8.70703125 10.390625 C8.74183594 9.49859375 8.77664062 8.6065625 8.8125 7.6875 C8.20277344 7.39230469 7.59304687 7.09710938 6.96484375 6.79296875 C4.8125 5.6875 4.8125 5.6875 2.375 4 C-0.06951109 2.48993987 -0.06951109 2.48993987 -2.625 2.75 C-5.86866909 3.9367082 -8.38752259 5.67882055 -11.1875 7.6875 C-12.1775 8.3475 -13.1675 9.0075 -14.1875 9.6875 C-13.85229055 6.79078434 -13.36917301 5.84282871 -11.11328125 3.9140625 C-4.0748222 -0.39949237 -4.0748222 -0.39949237 0 0 Z " fill="#404593" transform="translate(239.1875,244.3125)"/>
<path d="M0 0 C2.3125 1 2.3125 1 4 3 C4.62850686 5.7933638 4.6778523 8.21327388 4 11 C1.75 13.0625 1.75 13.0625 -1 14 C-3.98861604 13.72830763 -6.37219075 12.40775496 -9 11 C-9.48676056 3.57690141 -9.48676056 3.57690141 -7.3125 1 C-4.56838177 -0.18664572 -2.96045262 -0.44406789 0 0 Z " fill="#F0F8FA" transform="translate(371,343)"/>
<path d="M0 0 C0.99 0.66 1.98 1.32 3 2 C3.64234124 7.05843729 3.64234124 7.05843729 3 10 C0.8125 12.0625 0.8125 12.0625 -2 13 C-5.5341312 12.74756206 -7.00316126 11.99789249 -10 10 C-10.64234124 4.94156271 -10.64234124 4.94156271 -10 2 C-6.66247656 -1.14680781 -4.27609412 -1.4628743 0 0 Z " fill="#EDF8FA" transform="translate(372,276)"/>
<path d="M0 0 C2 2 2 2 2.4375 5.9375 C2.35353914 9.22996504 2.28889368 9.71936042 -0.1875 12.125 C-3 13 -3 13 -5.625 12.3125 C-8 11 -8 11 -11 9 C-11.4375 5.5625 -11.4375 5.5625 -11 2 C-7.87890362 -1.99500336 -4.5824922 -1.10319257 0 0 Z " fill="#F4F4F9" transform="translate(274,284)"/>
<path d="M0 0 C0.66 0.33 1.32 0.66 2 1 C2.28784504 4.05115745 2.4299258 6.95827494 2 10 C-0.1875 12.1875 -0.1875 12.1875 -3 13 C-5.6875 12.25 -5.6875 12.25 -8 11 C-8.66 10.67 -9.32 10.34 -10 10 C-10.28784504 6.94884255 -10.4299258 4.04172506 -10 1 C-6.44579345 -2.55420655 -4.26183294 -2.30369348 0 0 Z " fill="#F5F8FA" transform="translate(324,316)"/>
<path d="M0 0 C3 0 3 0 5.265625 2.17578125 C6.16796875 3.10777344 7.0703125 4.03976562 8 5 C10.1945574 6.80362681 12.46980407 8.49400617 14.75 10.1875 C20.86520888 14.73041775 20.86520888 14.73041775 22 17 C22.30859375 19.3203125 22.30859375 19.3203125 22.4375 22.125 C22.49808594 23.03507812 22.55867188 23.94515625 22.62109375 24.8828125 C20.99917288 33.02301914 13.06560022 39.21575516 7.375 44.8125 C6.62476563 45.56208984 5.87453125 46.31167969 5.1015625 47.08398438 C-2.03332145 54.16194106 -2.03332145 54.16194106 -5 56 C-5.99 55.67 -6.98 55.34 -8 55 C-7.53851563 54.60055176 -7.07703125 54.20110352 -6.6015625 53.78955078 C-4.39308985 51.86859421 -2.19507449 49.93625493 0 48 C0.80566406 47.29069336 1.61132812 46.58138672 2.44140625 45.85058594 C4.99817013 43.56290245 7.50037869 41.22487441 10 38.875 C10.87011719 38.10929687 11.74023438 37.34359375 12.63671875 36.5546875 C17.36465864 32.04199134 19.61497637 28.88034149 19.9453125 22.2265625 C19.64659362 18.23017248 19.33900564 15.51847411 16.3671875 12.71875 C14.68355187 11.52270467 14.68355187 11.52270467 12.875 10.5 C11.72577064 9.74078061 10.57732939 8.98036689 9.4296875 8.21875 C8.8634668 7.86167969 8.29724609 7.50460937 7.71386719 7.13671875 C4.94217296 5.29839848 2.48682072 3.20714787 0 1 C0 0.67 0 0.34 0 0 Z " fill="#3E65A4" transform="translate(285,369)"/>
<path d="M0 0 C1 1 1 1 1.3125 4.875 C1.26489118 7.82145709 1.24596283 8.68781641 -0.625 11.0625 C-3.80703406 12.31856608 -5.74212952 11.92070253 -9 11 C-11 9 -11 9 -11.4375 5.0625 C-11.34864908 1.81055637 -11.28016798 1.28016798 -8.875 -1.125 C-5.20160296 -2.2429904 -3.44425884 -1.5655722 0 0 Z " fill="#F7FAFB" transform="translate(325,385)"/>
<path d="M0 0 C2 2 2 2 2.4375 5.9375 C2.34864908 9.18944363 2.28016798 9.71983202 -0.125 12.125 C-3.79839704 13.2429904 -5.55574116 12.5655722 -9 11 C-10 10 -10 10 -10.3125 6.125 C-10.26489118 3.17854291 -10.24596283 2.31218359 -8.375 -0.0625 C-5.19296594 -1.31856608 -3.25787048 -0.92070253 0 0 Z " fill="#F8FAFB" transform="translate(324,248)"/>
<path d="M0 0 C2 2 2 2 2.375 4.9375 C2 8 2 8 0.3125 9.875 C-2.40408805 11.19658337 -4.01352485 11.38288143 -7 11 C-7.99 10.34 -8.98 9.68 -10 9 C-10.4375 5.5625 -10.4375 5.5625 -10 2 C-7.00303875 -1.6885677 -4.34072074 -1.22672543 0 0 Z " fill="#F2F3F8" transform="translate(262,160)"/>
<path d="M0 0 C0 0.66 0 1.32 0 2 C-0.88300781 2.31453125 -1.76601562 2.6290625 -2.67578125 2.953125 C-3.87589844 3.38109375 -5.07601562 3.8090625 -6.3125 4.25 C-6.94389893 4.47453857 -7.57529785 4.69907715 -8.22583008 4.93041992 C-13.10164482 6.66787803 -17.95320691 8.46500952 -22.79296875 10.30078125 C-25 11 -25 11 -28 11 C-28 19.25 -28 27.5 -28 36 C-25.69 36 -23.38 36 -21 36 C-20.67 30.39 -20.34 24.78 -20 19 C-19.67 19 -19.34 19 -19 19 C-19 25.27 -19 31.54 -19 38 C-22.63 38 -26.26 38 -30 38 C-30 28.76 -30 19.52 -30 10 C-26.21135374 8.57128491 -22.42177282 7.14561231 -18.62915039 5.72753906 C-17.33942542 5.24427735 -16.05035562 4.75926331 -14.76196289 4.27246094 C-12.90945042 3.57286085 -11.05436431 2.88008767 -9.19921875 2.1875 C-8.08377686 1.76855469 -6.96833496 1.34960938 -5.8190918 0.91796875 C-3 0 -3 0 0 0 Z " fill="#2B2D8C" transform="translate(230,207)"/>
<path d="M0 0 C2 2 2 2 2.3125 5.5 C2.1578125 7.2325 2.1578125 7.2325 2 9 C-1 11 -1 11 -4.0625 10.6875 C-7 10 -7 10 -9 9 C-9.48492623 2.57472739 -9.48492623 2.57472739 -7.3125 0 C-4.39120636 -1.26326211 -2.98201353 -1.02016252 0 0 Z " fill="#F7F7FA" transform="translate(174,253)"/>
<path d="M0 0 C1.8125 1.5625 1.8125 1.5625 3 3 C1.88625 2.71125 0.7725 2.4225 -0.375 2.125 C-5.47618211 1.48735224 -8.76866273 3.45733229 -12.96875 6.18359375 C-15.3474253 7.96649995 -15.3474253 7.96649995 -15.875 11.5625 C-17 15 -17 15 -19.23828125 16.37890625 C-22.45558501 17.73827036 -25.68621805 18.89540602 -29 20 C-30.37650424 20.47206718 -31.7528002 20.94474206 -33.12890625 21.41796875 C-36.74149653 22.6478048 -40.36649335 23.83350538 -44 25 C-44.66 24.34 -45.32 23.68 -46 23 C-41.89864435 21.49223384 -37.79347933 19.99512424 -33.6875 18.5 C-32.52025391 18.07074219 -31.35300781 17.64148438 -30.15039062 17.19921875 C-29.03212891 16.79316406 -27.91386719 16.38710937 -26.76171875 15.96875 C-25.73006592 15.59169922 -24.69841309 15.21464844 -23.63549805 14.82617188 C-21 14 -21 14 -18 14 C-18.185625 12.96875 -18.37125 11.9375 -18.5625 10.875 C-18 7 -18 7 -16.13671875 5.26953125 C-13.80472069 3.72377149 -11.46690599 2.31922291 -9 1 C-8.29488281 0.61070312 -7.58976562 0.22140625 -6.86328125 -0.1796875 C-4.22022516 -1.3432971 -2.70047158 -0.90015719 0 0 Z " fill="#54579F" transform="translate(261,150)"/>
<path d="M0 0 C6.00216678 0.97056314 11.36608841 2.41970685 16.95703125 4.79296875 C21.72695212 6.68501695 26.60964565 8.2312512 31.4921875 9.80566406 C36.1156921 11.31253925 40.53219813 13.06878889 45 15 C47.85959951 16.06568715 50.74059299 17.06620747 53.625 18.0625 C58.12176493 19.62300322 62.59875053 21.18209261 67 23 C63.12912746 24.48879713 60.7988105 23.36524674 57 22 C56.00782471 21.64421875 55.01564941 21.2884375 53.9934082 20.921875 C52.93984131 20.53515625 51.88627441 20.1484375 50.80078125 19.75 C49.60340332 19.31083252 48.40602539 18.87166504 47.17236328 18.41918945 C45.88572568 17.94617121 44.59910495 17.47310706 43.3125 17 C41.98682844 16.51323221 40.66114468 16.02649762 39.33544922 15.53979492 C26.21375127 10.71991197 13.10494751 5.86522375 0 1 C0 0.67 0 0.34 0 0 Z " fill="#2FB1C4" transform="translate(393,163)"/>
<path d="M0 0 C1.66611905 -0.042721 3.33382885 -0.04063832 5 0 C6.81819016 1.81819016 6.21986221 4.65779783 6.28466797 7.10864258 C6.32075165 8.41702591 6.35683533 9.72540924 6.39401245 11.07344055 C6.42760074 12.51378425 6.46030403 13.95414881 6.4921875 15.39453125 C6.51672186 16.47789041 6.51672186 16.47789041 6.54175186 17.5831356 C6.62682842 21.40663131 6.70452816 25.23020747 6.77734375 29.05395508 C6.83908485 32.22146051 6.91544245 35.38808924 7.00488281 38.55493164 C7.11276405 42.3748477 7.19589172 46.19454217 7.26114273 50.0154171 C7.29008425 51.47204788 7.32765838 52.92853368 7.37401962 54.38471413 C7.43700644 56.42360521 7.46512319 58.46348319 7.49169922 60.50317383 C7.53047684 62.24405022 7.53047684 62.24405022 7.57003784 64.02009583 C7 67 7 67 4.5942688 69.40605164 C2 71 2 71 0 71 C0.33 70.01 0.66 69.02 1 68 C2.98 67.505 2.98 67.505 5 67 C5 45.55 5 24.1 5 2 C3.35 1.67 1.7 1.34 0 1 C0 0.67 0 0.34 0 0 Z " fill="#3F9DBB" transform="translate(359,201)"/>
<path d="M0 0 C-20.11517133 7.79786226 -20.11517133 7.79786226 -29.5 11 C-30.6446875 11.391875 -31.789375 11.78375 -32.96875 12.1875 C-35.81239987 12.94971543 -38.07687181 13.17451512 -41 13 C-37.63100237 10.75400158 -34.19268941 9.49385626 -30.41015625 8.14453125 C-29.66922226 7.87863693 -28.92828827 7.61274261 -28.16490173 7.33879089 C-26.5997655 6.77931424 -25.03378908 6.22218322 -23.46704102 5.66723633 C-21.07104863 4.81553876 -18.68112894 3.94811455 -16.29101562 3.08007812 C-14.7685775 2.53808306 -13.24580171 1.99703534 -11.72265625 1.45703125 C-11.00900406 1.19565872 -10.29535187 0.93428619 -9.56007385 0.66499329 C-3.42365119 -1.47467647 -3.42365119 -1.47467647 0 0 Z " fill="#4F589F" transform="translate(271,194)"/>
<path d="M0 0 C0.33 0 0.66 0 1 0 C2.47090807 5.69625546 1.40540791 10.3852381 0.1875 16 C-0.08030273 17.31484375 -0.08030273 17.31484375 -0.35351562 18.65625 C-1.78274525 25.50829671 -3.56483824 31.84533518 -7 38 C-7.99 38.495 -7.99 38.495 -9 39 C-8.34375 36.59375 -8.34375 36.59375 -7.6875 34.1875 C-7.41292969 33.17300781 -7.13835937 32.15851563 -6.85546875 31.11328125 C-6.33257419 29.21032707 -5.79668316 27.31080805 -5.23828125 25.41796875 C-2.81343704 17.06572757 -1.41637554 8.56856978 0 0 Z " fill="#2AB2C5" transform="translate(463,316)"/>
<path d="M0 0 C3.26130564 1.70830295 4.80296725 3.16822236 6.625 6.375 C6.08242231 10.2505549 5.28687585 11.83504865 2.25 14.3125 C-0.375 15.375 -0.375 15.375 -2.5625 15.1875 C-4.375 14.375 -4.375 14.375 -6.375 12.375 C-5.281875 12.395625 -4.18875 12.41625 -3.0625 12.4375 C0.56884191 12.56044452 0.56884191 12.56044452 3.625 11.375 C3.36106499 7.94269552 3.36106499 7.94269552 2.625 4.375 C-0.14488076 2.05956793 -0.14488076 2.05956793 -3 2.6875 C-5.31001965 3.1491514 -5.31001965 3.1491514 -6.375 4.375 C-6.74260731 6.70317964 -7.07741581 9.0368385 -7.375 11.375 C-8.035 11.045 -8.695 10.715 -9.375 10.375 C-9.6875 7.625 -9.6875 7.625 -9.375 4.375 C-3.84308511 -1.01133819 -3.84308511 -1.01133819 0 0 Z " fill="#45489A" transform="translate(172.375,250.625)"/>
<path d="M0 0 C0.66 0.33 1.32 0.66 2 1 C-0.8259814 4.16509917 -3.66864529 6.00850223 -7.33984375 7.99609375 C-9.18735025 9.02291107 -9.18735025 9.02291107 -11.0625 11.0625 C-13.58703326 13.58703326 -15.60029724 14.86676575 -19 16 C-22.625 14.75 -22.625 14.75 -26 13 C-29.33720859 11.82216168 -31.57585036 12.14396259 -35 13 C-33.375 11.4375 -33.375 11.4375 -31 10 C-27.12273569 10.23738353 -25.25923117 10.82717922 -22 13 C-17.03479187 12.8529468 -13.6901914 9.92590154 -9.875 7.0625 C-8.64337899 6.15734818 -7.41161332 5.25239317 -6.1796875 4.34765625 C-5.13039063 3.57292969 -4.08109375 2.79820312 -3 2 C-2.01 1.34 -1.02 0.68 0 0 Z " fill="#465FA1" transform="translate(299,263)"/>
<path d="M0 0 C-1.155 0.53625 -2.31 1.0725 -3.5 1.625 C-6.39899661 3.67204658 -6.94445465 4.74424723 -7.7109375 8.2734375 C-8.15380272 15.06863602 -8.15380272 15.06863602 -5.4140625 21.0234375 C-3.32884492 22.58151739 -3.32884492 22.58151739 0 24 C-2 25 -2 25 -3.9453125 24.56640625 C-6.66338989 23.3145319 -8.12112659 22.36333628 -10 20 C-11.20490757 14.42584024 -11.20490757 9.57415976 -10 4 C-7.47370877 0.82231081 -3.99811478 -1.99905739 0 0 Z " fill="#4F519D" transform="translate(166,246)"/>
<path d="M0 0 C-1.33706365 2.9737301 -2.80721649 5.05492383 -5.1171875 7.34765625 C-5.72433594 7.95287109 -6.33148438 8.55808594 -6.95703125 9.18164062 C-7.58996094 9.80232422 -8.22289062 10.42300781 -8.875 11.0625 C-9.50019531 11.68705078 -10.12539063 12.31160156 -10.76953125 12.95507812 C-17.35009673 19.4730378 -17.35009673 19.4730378 -20 21 C-20.99 20.67 -21.98 20.34 -23 20 C-22.57332031 19.64550781 -22.14664062 19.29101562 -21.70703125 18.92578125 C-16.3018517 14.32302011 -11.32049749 9.37336166 -6.39379883 4.26879883 C-2.2148038 0 -2.2148038 0 0 0 Z " fill="#3B5BA0" transform="translate(300,404)"/>
<path d="M0 0 C13.53 0 27.06 0 41 0 C41 0.33 41 0.66 41 1 C27.8 1 14.6 1 1 1 C0.67 2.65 0.34 4.3 0 6 C-2.4375 7.875 -2.4375 7.875 -5 9 C-5.66 8.67 -6.32 8.34 -7 8 C-6.21625 7.79375 -5.4325 7.5875 -4.625 7.375 C-1.22243212 5.9794353 -1.22243212 5.9794353 0 0 Z " fill="#30328A" transform="translate(184,261)"/>
<path d="M0 0 C0.99 0.33 1.98 0.66 3 1 C-4.26 8.26 -11.52 15.52 -19 23 C-19.66 22.67 -20.32 22.34 -21 22 C-20.35933594 21.3709375 -19.71867188 20.741875 -19.05859375 20.09375 C-14.34808581 15.43238297 -9.78304265 10.72919166 -5.47265625 5.6953125 C-3.73937606 3.69997138 -1.90632672 1.83007366 0 0 Z " fill="#434399" transform="translate(236,379)"/>
<path d="M0 0 C0 0.66 0 1.32 0 2 C-0.88300781 2.31453125 -1.76601562 2.6290625 -2.67578125 2.953125 C-3.87589844 3.38109375 -5.07601562 3.8090625 -6.3125 4.25 C-6.94389893 4.47453857 -7.57529785 4.69907715 -8.22583008 4.93041992 C-13.10164482 6.66787803 -17.95320691 8.46500952 -22.79296875 10.30078125 C-25 11 -25 11 -28 11 C-28.33 11.66 -28.66 12.32 -29 13 C-29.33 12.01 -29.66 11.02 -30 10 C-26.21204894 8.5695796 -22.42174552 7.1456021 -18.62915039 5.72753906 C-17.33942542 5.24427735 -16.05035562 4.75926331 -14.76196289 4.27246094 C-12.90945042 3.57286085 -11.05436431 2.88008767 -9.19921875 2.1875 C-8.08377686 1.76855469 -6.96833496 1.34960938 -5.8190918 0.91796875 C-3 0 -3 0 0 0 Z " fill="#4B4E9C" transform="translate(230,207)"/>
<path d="M0 0 C4.55555556 0.55555556 4.55555556 0.55555556 6 2 C6.04063832 3.66617115 6.042721 5.33388095 6 7 C0.25 8.125 0.25 8.125 -2 7 C-2.125 4.625 -2.125 4.625 -2 2 C-1.34 1.34 -0.68 0.68 0 0 Z " fill="#EDEEF4" transform="translate(235,254)"/>
<path d="M0 0 C3.45281166 1.15093722 4.38082163 2.3205993 6.6875 5.0625 C7.31011719 5.79597656 7.93273437 6.52945312 8.57421875 7.28515625 C9.27998047 8.13400391 9.27998047 8.13400391 10 9 C9.67 9.66 9.34 10.32 9 11 C6.36 8.36 3.72 5.72 1 3 C-0.65 4.98 -2.3 6.96 -4 9 C-3.34 10.65 -2.68 12.3 -2 14 C-3.65 12.68 -5.3 11.36 -7 10 C-6.42424336 6.64749299 -5.40693737 5.06181371 -2.9375 2.75 C-2.38964844 2.22921875 -1.84179688 1.7084375 -1.27734375 1.171875 C-0.64505859 0.59179688 -0.64505859 0.59179688 0 0 Z " fill="#464899" transform="translate(246,393)"/>
<path d="M0 0 C3.53571429 0.53571429 3.53571429 0.53571429 5 2 C5.125 4.5 5.125 4.5 5 7 C4 8 4 8 1.5 8.125 C-1 8 -1 8 -2 7 C-2.1875 4.5625 -2.1875 4.5625 -2 2 C-1.34 1.34 -0.68 0.68 0 0 Z " fill="#F3F6F9" transform="translate(272,234)"/>
<path d="M0 0 C1.32 0.66 2.64 1.32 4 2 C4.042721 3.66611905 4.04063832 5.33382885 4 7 C3 8 3 8 0.5 8.125 C-2 8 -2 8 -3 7 C-3.25 4.5625 -3.25 4.5625 -3 2 C-2.01 1.34 -1.02 0.68 0 0 Z " fill="#EBF9FA" transform="translate(401,314)"/>
<path d="M0 0 C0 1.98 0 3.96 0 6 C-2.375 6.625 -2.375 6.625 -5 7 C-7 5 -7 5 -7.125 2.375 C-7.08375 1.59125 -7.0425 0.8075 -7 0 C-4.3333581 -1.33332095 -2.83319697 -0.67102033 0 0 Z " fill="#F3F4F9" transform="translate(241,311)"/>
<path d="M0 0 C0 1.98 0 3.96 0 6 C-1.8125 6.625 -1.8125 6.625 -4 7 C-4.99 6.34 -5.98 5.68 -7 5 C-7.1875 2.375 -7.1875 2.375 -7 0 C-4.3333581 -1.33332095 -2.83319697 -0.67102033 0 0 Z " fill="#EDFAFA" transform="translate(405,249)"/>
<path d="M0 0 C3.43504413 2.06102648 6.6216598 4.26246145 9.8125 6.6875 C8.8225 7.0175 7.8325 7.3475 6.8125 7.6875 C5.1640625 6.65625 5.1640625 6.65625 3.4375 5.1875 C0.67093087 3.04944282 0.67093087 3.04944282 -2.75 2.625 C-5.8459887 3.97453354 -8.44637574 5.72104129 -11.1875 7.6875 C-12.1775 8.3475 -13.1675 9.0075 -14.1875 9.6875 C-13.85229055 6.79078434 -13.36917301 5.84282871 -11.11328125 3.9140625 C-4.0748222 -0.39949237 -4.0748222 -0.39949237 0 0 Z " fill="#4E5197" transform="translate(239.1875,244.3125)"/>
<path d="M0 0 C1.8125 1.5625 1.8125 1.5625 3 3 C1.88625 2.71125 0.7725 2.4225 -0.375 2.125 C-5.48180485 1.47637183 -8.79559444 3.48884966 -12.98828125 6.23046875 C-15.30399647 7.96798385 -15.30399647 7.96798385 -16.125 11.375 C-16.08375 12.24125 -16.0425 13.1075 -16 14 C-16.33 14 -16.66 14 -17 14 C-18.04650781 9.02908792 -18.04650781 9.02908792 -17 6 C-12.10289114 1.83094331 -6.52669971 -2.2981337 0 0 Z " fill="#444D98" transform="translate(261,150)"/>
<path d="M0 0 C-1.84709243 4.37829317 -4.93708858 6.87879046 -8.41796875 10 C-10.25822368 11.8537076 -10.25822368 11.8537076 -9.8046875 14.109375 C-8.94822973 16.12163501 -8.03280841 18.07209097 -7 20 C-11.72318339 16.60899654 -11.72318339 16.60899654 -12.859375 14.109375 C-13 12 -13 12 -11.70703125 10 C-11.08183594 9.34 -10.45664063 8.68 -9.8125 8 C-9.16539062 7.3090625 -8.51828125 6.618125 -7.8515625 5.90625 C-6.93503906 4.96265625 -6.93503906 4.96265625 -6 4 C-5.236875 3.175 -4.47375 2.35 -3.6875 1.5 C-2 0 -2 0 0 0 Z " fill="#434496" transform="translate(230,397)"/>
<path d="M0 0 C0 6.11155569 -5.29353429 10.60618173 -9.25 14.875 C-10.58804687 16.32519531 -10.58804687 16.32519531 -11.953125 17.8046875 C-12.62859375 18.52914062 -13.3040625 19.25359375 -14 20 C-14 15.68790072 -11.41242503 13.6379198 -8.6875 10.5625 C-7.69045719 9.41879541 -6.69433947 8.27428361 -5.69921875 7.12890625 C-5.2304834 6.59152832 -4.76174805 6.05415039 -4.27880859 5.50048828 C-2.76719818 3.72684231 -1.36137221 1.89105286 0 0 Z " fill="#3972A9" transform="translate(317,136)"/>
<path d="M0 0 C0.33 0.66 0.66 1.32 1 2 C0.14921875 1.78472656 -0.7015625 1.56945312 -1.578125 1.34765625 C-5.70513213 0.92835986 -7.95581722 1.8245352 -11.75 3.4375 C-17.86648501 6 -17.86648501 6 -20 6 C-19.67 5.01 -19.34 4.02 -19 3 C-17.35 3 -15.7 3 -14 3 C-14 2.34 -14 1.68 -14 1 C-12.8553125 0.7834375 -12.8553125 0.7834375 -11.6875 0.5625 C-4.20067644 -1.00450958 -4.20067644 -1.00450958 0 0 Z " fill="#474B97" transform="translate(250,175)"/>
<path d="M0 0 C0.66 0.66 1.32 1.32 2 2 C-2.29 6.29 -6.58 10.58 -11 15 C-11.66 14.67 -12.32 14.34 -13 14 C-12.31292969 13.32453125 -11.62585938 12.6490625 -10.91796875 11.953125 C-10.01691406 11.06109375 -9.11585938 10.1690625 -8.1875 9.25 C-6.84751953 7.92742187 -6.84751953 7.92742187 -5.48046875 6.578125 C-3.44787848 4.46551149 -1.68226182 2.39205335 0 0 Z " fill="#E4F6F7" transform="translate(398,405)"/>
<path d="M0 0 C0.66 0.99 1.32 1.98 2 3 C1.42578125 5.41015625 1.42578125 5.41015625 0.3125 8.0625 C-0.04199219 8.94035156 -0.39648438 9.81820313 -0.76171875 10.72265625 C-2 13 -2 13 -5 15 C-4.54705135 13.24859857 -4.08741252 11.49892656 -3.625 9.75 C-3.36976563 8.77546875 -3.11453125 7.8009375 -2.8515625 6.796875 C-2.10401491 4.34162697 -1.22876183 2.24382595 0 0 Z " fill="#34B7C9" transform="translate(459,340)"/>
<path d="M0 0 C2.96175123 0.61277612 4.38058783 1.25372522 7 3 C7.29296875 6.2578125 7.29296875 6.2578125 7.1875 10.125 C7.14689453 12.04699219 7.14689453 12.04699219 7.10546875 14.0078125 C7.07066406 14.99523437 7.03585937 15.98265625 7 17 C6.01 17.33 5.02 17.66 4 18 C4.16371094 17.45859375 4.32742188 16.9171875 4.49609375 16.359375 C5.08590587 13.59777407 5.09609308 11.07181861 5.0625 8.25 C5.04896484 6.77273437 5.04896484 6.77273437 5.03515625 5.265625 C5.02355469 4.51796875 5.01195312 3.7703125 5 3 C2.525 2.01 2.525 2.01 0 1 C0 0.67 0 0.34 0 0 Z " fill="#4360A0" transform="translate(279,228)"/>
<path d="M0 0 C0 3 0 3 -1.42578125 4.75390625 C-2.04839844 5.35074219 -2.67101562 5.94757813 -3.3125 6.5625 C-3.92738281 7.16191406 -4.54226563 7.76132812 -5.17578125 8.37890625 C-7 10 -7 10 -10 12 C-10.99 11.67 -11.98 11.34 -13 11 C-12.22914063 10.37351562 -11.45828125 9.74703125 -10.6640625 9.1015625 C-9.15972656 7.87566406 -9.15972656 7.87566406 -7.625 6.625 C-6.62726563 5.81289063 -5.62953125 5.00078125 -4.6015625 4.1640625 C-2.03639494 2.09734084 -2.03639494 2.09734084 0 0 Z " fill="#34A3BF" transform="translate(393,440)"/>
<path d="M0 0 C0.66 0.33 1.32 0.66 2 1 C1.27623543 4.49403583 -0.06285206 7.51998905 -1.5625 10.75 C-2.01753906 11.73484375 -2.47257812 12.7196875 -2.94140625 13.734375 C-3.29074219 14.48203125 -3.64007813 15.2296875 -4 16 C-4.66 16 -5.32 16 -6 16 C-4.27933894 10.55123997 -2.15294651 5.28830549 0 0 Z " fill="#32B5C8" transform="translate(421,345)"/>
<path d="M0 0 C5.79274611 0.94300518 5.79274611 0.94300518 8.5 1.6875 C11.75545107 2.09443138 13.98457635 1.19214424 17 0 C14.87878343 2.33333823 12.98405635 3.9148886 10 5 C6.33542684 4.63354268 3.22501173 2.68580159 0 1 C0 0.67 0 0.34 0 0 Z " fill="#485D9D" transform="translate(265,247)"/>
<path d="M0 0 C0 0.66 0 1.32 0 2 C-1.76414623 2.72482748 -3.53662904 3.42939296 -5.3125 4.125 C-6.79169922 4.71667969 -6.79169922 4.71667969 -8.30078125 5.3203125 C-9.19152344 5.54460937 -10.08226562 5.76890625 -11 6 C-11.99 5.34 -12.98 4.68 -14 4 C-12.23141309 3.32739649 -10.46003984 2.66211605 -8.6875 2 C-7.70136719 1.62875 -6.71523437 1.2575 -5.69921875 0.875 C-3 0 -3 0 0 0 Z " fill="#5355A0" transform="translate(230,207)"/>
<path d="M0 0 C0 3.73928499 -0.91959602 4.40902253 -3.375 7.125 C-4.31472656 8.18074219 -4.31472656 8.18074219 -5.2734375 9.2578125 C-7 11 -7 11 -9 12 C-7.55575365 8.76138697 -5.74227753 6.38030837 -3.375 3.75 C-2.74335938 3.04359375 -2.11171875 2.3371875 -1.4609375 1.609375 C-0.97882813 1.07828125 -0.49671875 0.5471875 0 0 Z " fill="#3F5B9E" transform="translate(284,176)"/>
<path d="M0 0 C0.66 0.33 1.32 0.66 2 1 C-0.97 4.3 -3.94 7.6 -7 11 C-7.66 10.67 -8.32 10.34 -9 10 C-6.03 6.7 -3.06 3.4 0 0 Z " fill="#3A62A2" transform="translate(294,164)"/>
<path d="M0 0 C0 3.77910478 -0.99703962 4.46106101 -3.5 7.1875 C-4.1496875 7.90292969 -4.799375 8.61835938 -5.46875 9.35546875 C-5.9740625 9.89816406 -6.479375 10.44085938 -7 11 C-7.66 10.67 -8.32 10.34 -9 10 C-6.03 6.7 -3.06 3.4 0 0 Z " fill="#35A5BE" transform="translate(396,389)"/>
<path d="M0 0 C0.59425781 0.19980469 1.18851563 0.39960938 1.80078125 0.60546875 C1.25808594 0.94320312 0.71539062 1.2809375 0.15625 1.62890625 C-0.91689453 2.29792969 -0.91689453 2.29792969 -2.01171875 2.98046875 C-3.07326172 3.64175781 -3.07326172 3.64175781 -4.15625 4.31640625 C-5.85353914 5.38735351 -7.52936233 6.49223114 -9.19921875 7.60546875 C-9.07421875 5.85546875 -9.07421875 5.85546875 -8.19921875 3.60546875 C-3.1310441 -0.56169708 -3.1310441 -0.56169708 0 0 Z " fill="#414496" transform="translate(234.19921875,246.39453125)"/>
<path d="M0 0 C0.66 0.33 1.32 0.66 2 1 C0.02 3.31 -1.96 5.62 -4 8 C-4.99 7.67 -5.98 7.34 -7 7 C-4.69 4.69 -2.38 2.38 0 0 Z " fill="#464F9D" transform="translate(264,351)"/>
<path d="M0 0 C0.33 0 0.66 0 1 0 C1.3125 3.25 1.3125 3.25 1 7 C-1.375 9.4375 -1.375 9.4375 -4 11 C-4.66 11 -5.32 11 -6 11 C-5.67 10.01 -5.34 9.02 -5 8 C-4.34 7.731875 -3.68 7.46375 -3 7.1875 C-2.01 6.5996875 -2.01 6.5996875 -1 6 C-0.18415432 2.94091587 -0.18415432 2.94091587 0 0 Z " fill="#2899BD" transform="translate(365,261)"/>
<path d="M0 0 C0.66 0 1.32 0 2 0 C1.8125 2.3125 1.8125 2.3125 1 5 C-1.4375 6.875 -1.4375 6.875 -4 8 C-4.66 7.67 -5.32 7.34 -6 7 C-4.7934375 6.6596875 -4.7934375 6.6596875 -3.5625 6.3125 C-2.716875 5.879375 -1.87125 5.44625 -1 5 C-0.10613836 2.45224694 -0.10613836 2.45224694 0 0 Z " fill="#494C9A" transform="translate(183,262)"/>
<path d="M0 0 C3.37705625 0.53725895 6.696686 1.11064623 10 2 C9.67 2.66 9.34 3.32 9 4 C3.46153846 3.38461538 3.46153846 3.38461538 1.125 1.4375 C0.75375 0.963125 0.3825 0.48875 0 0 Z " fill="#47549D" transform="translate(251,177)"/>
<path d="M0 0 C0 3 0 3 -1.3125 4.38671875 C-2.875 5.59114583 -4.4375 6.79557292 -6 8 C-6 5 -6 5 -4.6875 3.61328125 C-3.125 2.40885417 -1.5625 1.20442708 0 0 Z " fill="#358FB9" transform="translate(351,289)"/>
<path d="M0 0 C-6.625 3 -6.625 3 -10 3 C-10 2.34 -10 1.68 -10 1 C-3.71428571 -1.42857143 -3.71428571 -1.42857143 0 0 Z " fill="#47509C" transform="translate(257,199)"/>
</svg>
